<svg width="22" height="23" viewBox="0 0 22 23" fill="none" xmlns="http://www.w3.org/2000/svg">
<path d="M20.7893 1.47978L21.3793 2.06978C22.1923 2.88378 22.0693 4.32678 21.1023 5.29278L8.9353 17.4598L4.9933 18.9018C4.4983 19.0838 4.0163 18.8478 3.9183 18.3768C3.88518 18.2059 3.90077 18.0292 3.9633 17.8668L5.4333 13.8908L17.5663 1.75678C18.5333 0.790781 19.9763 0.665781 20.7893 1.47978ZM8.4043 2.68978C8.53562 2.68978 8.66565 2.71565 8.78698 2.7659C8.90831 2.81616 9.01854 2.88982 9.1114 2.98267C9.20426 3.07553 9.27792 3.18577 9.32818 3.3071C9.37843 3.42842 9.4043 3.55846 9.4043 3.68978C9.4043 3.8211 9.37843 3.95114 9.32818 4.07246C9.27792 4.19379 9.20426 4.30403 9.1114 4.39689C9.01854 4.48975 8.90831 4.56341 8.78698 4.61366C8.66565 4.66392 8.53562 4.68978 8.4043 4.68978H4.4043C3.87386 4.68978 3.36516 4.90049 2.99008 5.27557C2.61501 5.65064 2.4043 6.15935 2.4043 6.68978V18.6898C2.4043 19.2202 2.61501 19.7289 2.99008 20.104C3.36516 20.4791 3.87386 20.6898 4.4043 20.6898H16.4043C16.9347 20.6898 17.4434 20.4791 17.8185 20.104C18.1936 19.7289 18.4043 19.2202 18.4043 18.6898V14.6898C18.4043 14.4246 18.5097 14.1702 18.6972 13.9827C18.8847 13.7951 19.1391 13.6898 19.4043 13.6898C19.6695 13.6898 19.9239 13.7951 20.1114 13.9827C20.2989 14.1702 20.4043 14.4246 20.4043 14.6898V18.6898C20.4043 19.7506 19.9829 20.7681 19.2327 21.5182C18.4826 22.2684 17.4652 22.6898 16.4043 22.6898H4.4043C3.34343 22.6898 2.32602 22.2684 1.57587 21.5182C0.825724 20.7681 0.404297 19.7506 0.404297 18.6898V6.68978C0.404297 5.62892 0.825724 4.6115 1.57587 3.86135C2.32602 3.11121 3.34343 2.68978 4.4043 2.68978H8.4043Z" fill="#1615F1"/>
</svg>
