<svg width="35" height="27" viewBox="0 0 35 27" fill="none" xmlns="http://www.w3.org/2000/svg">
<path d="M21.8753 0.921875C19.6048 0.922979 17.3768 1.53806 15.4273 2.70199C13.4777 3.86593 11.8793 5.53538 10.8011 7.53359C9.54666 7.404 8.279 7.53097 7.0752 7.90678C5.87141 8.28259 4.75666 8.89938 3.79877 9.71963C2.84089 10.5399 2.05989 11.5464 1.50331 12.678C0.946721 13.8097 0.626179 15.0427 0.561184 16.3021C0.496189 17.5615 0.6881 18.821 1.12524 20.0039C1.56238 21.1868 2.23561 22.2684 3.10397 23.1829C3.97233 24.0974 5.01767 24.8256 6.17638 25.3234C7.33509 25.8211 8.58295 26.0779 9.84404 26.0781H21.8753C25.2112 26.0781 28.4105 24.7529 30.7694 22.3941C33.1282 20.0352 34.4534 16.8359 34.4534 13.5C34.4534 10.1641 33.1282 6.96478 30.7694 4.60592C28.4105 2.24707 25.2112 0.921875 21.8753 0.921875ZM21.8753 22.7969H9.84404C8.2486 22.8299 6.7054 22.2277 5.55392 21.1229C4.40243 20.0181 3.737 18.5011 3.70401 16.9057C3.67101 15.3102 4.27315 13.767 5.37797 12.6155C6.48278 11.4641 7.99977 10.7986 9.59522 10.7656C9.39606 11.6634 9.29611 12.5804 9.29717 13.5C9.29717 13.9351 9.47002 14.3524 9.7777 14.6601C10.0854 14.9678 10.5027 15.1406 10.9378 15.1406C11.3729 15.1406 11.7902 14.9678 12.0979 14.6601C12.4056 14.3524 12.5784 13.9351 12.5784 13.5C12.5784 11.6613 13.1237 9.8638 14.1452 8.33493C15.1668 6.80607 16.6188 5.61447 18.3175 4.91081C20.0163 4.20715 21.8856 4.02304 23.689 4.38176C25.4924 4.74048 27.149 5.62593 28.4492 6.92612C29.7494 8.22631 30.6348 9.88285 30.9935 11.6863C31.3523 13.4897 31.1681 15.359 30.4645 17.0578C29.7608 18.7565 28.5692 20.2085 27.0404 21.2301C25.5115 22.2516 23.714 22.7969 21.8753 22.7969Z" fill="#1615F1"/>
</svg>
