<svg width="293" height="323" viewBox="0 0 293 323" fill="none" xmlns="http://www.w3.org/2000/svg">
<path d="M32.4121 160.556L23.1957 160.746L18.5173 160.83C16.9507 160.83 15.3772 160.83 13.8107 160.866H13.5016V160.556L13.4595 152.696V152.338H13.8107L23.1114 152.38C26.2163 152.38 29.3142 152.457 32.4121 152.492H32.6088V152.682C32.6088 154.009 32.5456 155.337 32.5175 156.651L32.4121 160.556ZM32.4121 160.556L32.3138 156.58C32.3138 155.274 32.2365 153.981 32.2224 152.696L32.4121 152.885C29.3142 152.921 26.2163 152.998 23.1114 152.998L13.8107 153.047L14.1619 152.696V160.556L13.8458 160.24C15.3772 160.24 16.9086 160.24 18.447 160.24L23.0693 160.325L32.4121 160.556Z" fill="#EBEBEB"/>
<path d="M22.0366 170.468L12.8202 170.658L8.14177 170.742C6.57526 170.742 5.00173 170.742 3.43522 170.777H3.12613V170.468L3.08398 162.608V162.271H3.43522L12.7359 162.313C15.8338 162.313 18.9387 162.39 22.0366 162.425H22.2333V162.615C22.2333 163.942 22.1771 165.27 22.142 166.584L22.0366 170.468ZM22.0366 170.468L21.9383 166.485C21.9031 165.179 21.861 163.886 21.8469 162.601L22.0366 162.79C18.9387 162.825 15.8338 162.903 12.7359 162.903L3.43522 162.973L3.78645 162.629L3.75133 170.489L3.43522 170.173C4.9666 170.173 6.49799 170.173 8.03639 170.208L12.6586 170.293L22.0366 170.468Z" fill="#EBEBEB"/>
<path d="M289.564 170.468L280.341 170.658L275.663 170.742C274.103 170.742 272.53 170.742 270.963 170.777H270.647V170.468L270.612 162.608V162.271H270.963L280.264 162.313C283.362 162.313 286.467 162.39 289.564 162.425H289.754V162.615C289.754 163.942 289.698 165.27 289.663 166.584L289.564 170.468ZM289.564 170.468L289.466 166.492C289.466 165.186 289.382 163.893 289.375 162.608L289.564 162.797C286.467 162.832 283.362 162.91 280.264 162.91L270.963 162.952L271.314 162.608L271.272 170.468L270.963 170.152C272.494 170.152 274.026 170.152 275.557 170.187L280.179 170.272L289.564 170.468Z" fill="#EBEBEB"/>
<path d="M279.19 31.0491L269.966 31.2458L265.288 31.3231C263.728 31.3231 262.155 31.3231 260.588 31.3653H260.3V31.0491V23.1885V22.8373H260.659L269.959 22.8794C273.057 22.8794 276.155 22.9637 279.26 22.9989H279.45V23.1815C279.45 24.5162 279.386 25.8439 279.358 27.1504L279.19 31.0491ZM279.19 31.0491L279.091 27.0802C279.056 25.7666 279.007 24.474 278.993 23.1885L279.19 23.3782C276.085 23.3782 272.987 23.4906 269.889 23.4976L260.588 23.5397L260.94 23.1885L260.897 31.0491L260.588 30.733C262.12 30.733 263.644 30.733 265.182 30.7752L269.805 30.8525L279.19 31.0491Z" fill="#EBEBEB"/>
<path d="M289.564 40.961L280.341 41.1577L275.663 41.235C274.103 41.235 272.53 41.235 270.963 41.2771H270.647V40.961L270.612 33.1004V32.7491H270.963L280.264 32.7913C283.362 32.7913 286.467 32.8756 289.564 32.9107H289.754V33.1004C289.754 34.4351 289.698 35.7627 289.663 37.0693L289.564 40.961ZM289.564 40.961L289.466 36.9921C289.466 35.6784 289.382 34.3859 289.375 33.1004L289.564 33.29C286.467 33.29 283.362 33.4024 280.264 33.4095L270.963 33.4516L271.314 33.1004L271.272 40.961L270.963 40.6449C272.494 40.6449 274.026 40.6449 275.557 40.687L280.179 40.7643L289.564 40.961Z" fill="#EBEBEB"/>
<path d="M32.4121 31.0492L23.1957 31.2459L18.5173 31.3232C16.9507 31.3232 15.3772 31.3232 13.8107 31.3653H13.5016V31.0492L13.4595 23.1816V22.8303H13.8107L23.1114 22.8725C26.2163 22.8725 29.3142 22.9568 32.4121 22.9919H32.6088V23.1816C32.6088 24.5162 32.5456 25.8439 32.5175 27.1505L32.4121 31.0492ZM32.4121 31.0492L32.3138 27.0803C32.3138 25.7666 32.2365 24.4741 32.2224 23.1886L32.4121 23.3782C29.3142 23.3782 26.2163 23.4906 23.1114 23.4977L13.8107 23.5398L14.1619 23.1886V31.0492L13.8458 30.7331C15.3772 30.7331 16.9086 30.7331 18.447 30.7753L23.0693 30.8525L32.4121 31.0492Z" fill="#EBEBEB"/>
<path d="M264.262 0H263.559V66.3763H264.262V0Z" fill="#C7C7C7"/>
<path d="M234.835 94.4118L237.168 99.5539H290.668L293 94.4118L270.226 78.6484H257.61L234.835 94.4118Z" fill="#EBEBEB"/>
<path d="M256.029 63.4609L257.609 78.6483H270.226L271.806 63.4609H256.029Z" fill="#DBDBDB"/>
<path d="M234.835 94.4119L237.175 99.5539H290.668L293 94.4119H234.835Z" fill="#DBDBDB"/>
<path d="M201.82 0H201.117V49.791H201.82V0Z" fill="#C7C7C7"/>
<path d="M172.386 77.8196L174.725 82.9616H228.218L230.551 77.8196L207.777 62.0562H195.16L172.386 77.8196Z" fill="#EBEBEB"/>
<path d="M193.579 46.8688L195.16 62.0562H207.776L209.357 46.8688H193.579Z" fill="#DBDBDB"/>
<path d="M172.393 77.8267L174.732 82.9687H228.218L230.55 77.8267H172.393Z" fill="#DBDBDB"/>
<path d="M215.904 200.141C217.819 202.209 220.34 203.618 223.106 204.165C225.871 204.712 228.738 204.37 231.297 203.187C233.856 202.004 235.974 200.042 237.349 197.581C238.724 195.12 239.284 192.287 238.949 189.488C238.615 186.689 237.403 184.068 235.487 182C233.571 179.932 231.049 178.524 228.284 177.978C225.518 177.432 222.651 177.775 220.093 178.959C217.534 180.142 215.416 182.105 214.042 184.567C212.676 187.029 212.12 189.859 212.454 192.655C212.788 195.451 213.995 198.07 215.904 200.141Z" fill="#EBEBEB"/>
<path d="M222.184 188.522C221.966 189.295 221.982 190.116 222.231 190.88C222.479 191.645 222.949 192.318 223.581 192.815C224.213 193.312 224.977 193.61 225.779 193.672C226.58 193.734 227.382 193.557 228.082 193.163C228.783 192.769 229.351 192.175 229.714 191.458C230.077 190.741 230.219 189.933 230.122 189.135C230.025 188.337 229.694 187.586 229.17 186.976C228.646 186.367 227.953 185.927 227.178 185.712C226.143 185.426 225.038 185.561 224.102 186.088C223.167 186.614 222.477 187.489 222.184 188.522Z" fill="white"/>
<path d="M216.354 198.525L215.904 200.141C217.59 201.956 219.748 203.267 222.136 203.925C224.524 204.584 227.049 204.565 229.427 203.871L229.876 202.262C230.262 200.506 229.96 198.668 229.032 197.128C228.104 195.588 226.62 194.462 224.887 193.983C223.153 193.504 221.302 193.708 219.715 194.553C218.128 195.398 216.925 196.82 216.354 198.525Z" fill="white"/>
<path d="M66.3337 96.6668C65.7728 94.3721 65.9051 91.9627 66.7138 89.7432C67.5224 87.5237 68.9712 85.5939 70.8768 84.1979C72.7823 82.8019 75.0591 82.0024 77.4191 81.9005C79.7792 81.7986 82.1164 82.399 84.1352 83.6256C86.154 84.8522 87.7636 86.65 88.7605 88.7915C89.7575 90.933 90.0969 93.3221 89.7358 95.6566C89.3748 97.9911 88.3295 100.166 86.7322 101.906C85.135 103.647 83.0574 104.874 80.7624 105.434C77.6865 106.183 74.4388 105.681 71.7332 104.037C69.0275 102.393 67.0854 99.7422 66.3337 96.6668Z" fill="#EBEBEB"/>
<path d="M84.0226 95.3323C82.2173 98.964 77.9322 101.128 77.9322 101.128C77.9322 101.128 73.6401 98.964 71.8418 95.3323C70.3385 92.2976 71.2939 89.01 73.6612 88.3076C77.0611 87.282 77.9322 93.2249 77.9322 93.2249C77.9322 93.2249 78.8033 87.3101 82.2032 88.3076C84.5705 89.0171 85.5259 92.2976 84.0226 95.3323Z" fill="white"/>
<path d="M256.254 143.241C256.627 140.908 257.684 138.738 259.29 137.006C260.896 135.274 262.98 134.058 265.278 133.51C267.576 132.962 269.985 133.109 272.199 133.93C274.414 134.752 276.336 136.212 277.72 138.126C279.105 140.039 279.892 142.321 279.98 144.681C280.068 147.042 279.454 149.376 278.215 151.387C276.977 153.399 275.17 154.998 273.023 155.982C270.875 156.967 268.484 157.292 266.152 156.918C263.026 156.415 260.228 154.693 258.372 152.128C256.516 149.563 255.754 146.367 256.254 143.241Z" fill="#EBEBEB"/>
<path d="M273.071 148.867C270.001 151.523 265.21 151.846 265.21 151.846C265.21 151.846 262.091 148.193 261.845 144.119C261.642 140.74 263.784 138.091 266.25 138.351C269.762 138.724 268.287 144.512 268.287 144.512C268.287 144.512 271.385 139.398 274.125 141.667C276.028 143.304 275.635 146.655 273.071 148.867Z" fill="white"/>
<path fill-rule="evenodd" clip-rule="evenodd" d="M119.406 142.952C118.858 142.615 118.387 142.117 117.65 142.187C117.369 142.187 117.432 141.983 117.432 141.836C117.432 139.082 117.432 136.328 117.397 133.582C117.397 133.378 117.397 133.216 117.629 133.104C119.736 132.036 120.628 129.95 121.907 128.187C122.565 127.299 123.037 126.288 123.295 125.214C123.554 124.139 123.593 123.024 123.41 121.935C123.326 121.316 123.614 121.042 124.169 120.909C124.449 120.815 124.753 120.811 125.035 120.9C125.318 120.988 125.565 121.163 125.742 121.401C126.351 122.523 126.759 123.742 126.951 125.004C127.077 126.044 126.705 127.063 126.578 128.095C126.487 128.847 126.311 129.599 126.171 130.364C126.353 130.498 126.571 130.427 126.768 130.427H133.743C134.72 130.427 135.198 130.701 135.338 131.355C135.415 131.754 135.358 132.168 135.177 132.533C134.995 132.897 134.699 133.192 134.334 133.371C134.158 133.462 133.849 133.371 133.828 133.652C133.807 133.933 134.13 133.905 134.291 134.017C135.134 134.586 134.994 135.78 134.01 136.469C133.779 136.637 133.308 136.56 133.308 136.904C133.308 137.248 133.729 137.171 133.926 137.368C134.629 138.035 134.27 139.293 133.259 139.798C133.119 139.842 132.983 139.896 132.851 139.96C132.739 140.037 132.627 140.121 132.851 140.283C133.863 140.986 133.849 141.997 132.851 142.728L132.549 142.952C132.181 143.171 131.753 143.265 131.327 143.219L120.389 143.262C120.213 143.281 120.035 143.263 119.865 143.21C119.696 143.157 119.54 143.069 119.406 142.952Z" fill="#EBEBEB"/>
<path fill-rule="evenodd" clip-rule="evenodd" d="M109.03 138.141C109.03 136.391 109.03 134.628 109.03 132.893C109.03 132.535 109.03 132.366 109.501 132.366C111.636 132.366 113.767 132.366 115.893 132.366C116.315 132.366 116.378 132.507 116.378 132.879C116.378 136.396 116.378 139.908 116.378 143.416C116.378 143.866 116.266 143.992 115.816 143.985C113.709 143.985 111.679 143.985 109.613 143.985C109.1 143.985 109.023 143.809 109.03 143.36C109.058 141.632 109.037 139.89 109.03 138.141Z" fill="#EBEBEB"/>
<path d="M0 258.719L36.6268 258.551L73.2535 258.488L146.5 258.375L219.746 258.488L256.373 258.551L293 258.719L256.373 258.895L219.746 258.958L146.5 259.071L73.2535 258.958L36.6268 258.895L0 258.719Z" fill="#263238"/>
<path d="M146.5 322.708C222.413 322.708 283.952 314.055 283.952 303.383C283.952 292.71 222.413 284.058 146.5 284.058C70.5873 284.058 9.04785 292.71 9.04785 303.383C9.04785 314.055 70.5873 322.708 146.5 322.708Z" fill="#EBEBEB"/>
<path d="M236.234 92.0726H171.312V127.885H236.234V92.0726Z" fill="#455A64"/>
<path d="M158.793 127.892H171.311V116.729L158.793 127.892Z" fill="#455A64"/>
<path d="M208.64 98.6901H179.207V99.4979H208.64V98.6901Z" fill="white"/>
<path d="M228.647 103.045H179.207V103.853H228.647V103.045Z" fill="white"/>
<path d="M228.647 107.401H179.207V108.208H228.647V107.401Z" fill="white"/>
<path d="M219.171 111.756H179.207V112.564H219.171V111.756Z" fill="white"/>
<path d="M228.647 116.111H179.207V116.919H228.647V116.111Z" fill="white"/>
<path d="M197.394 120.466H179.207V121.274H197.394V120.466Z" fill="white"/>
<path d="M263.427 134.165H198.94V160.725H263.427V134.165Z" fill="#407BFF"/>
<path d="M198.961 150.076V160.725H186.014L198.961 150.076Z" fill="#407BFF"/>
<path d="M255.679 140.775H206.787V141.583H255.679V140.775Z" fill="white"/>
<path d="M234.682 145.13H206.787V145.938H234.682V145.13Z" fill="white"/>
<path d="M244.495 149.485H206.787V150.293H244.495V149.485Z" fill="white"/>
<path d="M219.923 153.841H206.787V154.649H219.923V153.841Z" fill="white"/>
<path d="M158.484 150.954L158.091 150.61C158.393 150.258 158.716 149.907 159.039 149.563L159.426 149.921C159.102 150.265 158.786 150.61 158.484 150.954Z" fill="#263238"/>
<path d="M174.065 194.289V193.762C174.964 193.762 175.885 193.685 176.805 193.579L176.868 194.106C175.92 194.205 174.978 194.268 174.065 194.289ZM170.553 194.127C169.622 194.023 168.699 193.868 167.785 193.664L167.904 193.151C168.797 193.351 169.7 193.501 170.609 193.601L170.553 194.127ZM180.282 193.523L180.17 193.011C181.048 192.814 181.94 192.575 182.832 192.308L182.986 192.814C182.108 193.081 181.195 193.327 180.303 193.523H180.282ZM164.434 192.659C163.56 192.327 162.706 191.942 161.877 191.507L162.123 191.037C162.932 191.46 163.765 191.838 164.617 192.168L164.434 192.659ZM186.274 191.627L186.07 191.135C186.913 190.791 187.756 190.432 188.585 190.011L188.817 190.482C188.002 190.896 187.145 191.275 186.295 191.627H186.274ZM158.878 189.639C158.126 189.083 157.41 188.48 156.735 187.833L157.1 187.454C157.765 188.085 158.469 188.674 159.208 189.217L158.878 189.639ZM191.859 188.831L191.585 188.381C192.364 187.911 193.137 187.405 193.889 186.871L194.191 187.306C193.481 187.84 192.695 188.353 191.908 188.831H191.859ZM154.396 185.227C153.826 184.485 153.303 183.709 152.829 182.902L153.286 182.635C153.746 183.423 154.255 184.18 154.81 184.904L154.396 185.227ZM196.945 185.164L196.6 184.763C197.303 184.18 197.97 183.555 198.637 182.916L199.003 183.295C198.378 183.942 197.689 184.574 196.994 185.164H196.945ZM201.419 180.781L201.026 180.429C201.63 179.769 202.234 179.024 202.824 178.322L203.232 178.652C202.698 179.404 202.073 180.113 201.468 180.781H201.419ZM151.298 179.748C150.953 178.876 150.66 177.985 150.42 177.078L150.933 176.945C151.165 177.83 151.449 178.7 151.783 179.551L151.298 179.748ZM205.388 175.919L204.96 175.603C205.508 174.901 206.042 174.114 206.568 173.355L207.004 173.65C206.498 174.423 205.964 175.175 205.416 175.919H205.388ZM149.809 173.636C149.708 172.734 149.657 171.826 149.654 170.918V170.841H150.181V170.925C150.181 171.812 150.23 172.698 150.329 173.58L149.809 173.636ZM208.936 170.763L208.493 170.475C208.992 169.703 209.491 168.93 209.982 168.136L210.425 168.417C209.961 169.211 209.463 169.998 208.964 170.763H208.936ZM150.427 167.42L149.907 167.342C150.037 166.418 150.215 165.501 150.441 164.596L150.954 164.722C150.74 165.612 150.573 166.512 150.455 167.42H150.427ZM212.244 165.46L211.795 165.186C212.272 164.399 212.75 163.612 213.2 162.811L213.649 163.085L212.244 165.46ZM151.972 161.442L151.481 161.259C151.804 160.395 152.183 159.531 152.591 158.688L153.061 158.92C152.696 159.749 152.324 160.599 152.008 161.442H151.972ZM215.469 160.114L215.019 159.84L216.459 157.466L216.909 157.74L215.469 160.114ZM154.733 155.899L154.284 155.618C154.775 154.838 155.302 154.059 155.857 153.307L156.279 153.623C155.773 154.375 155.246 155.14 154.768 155.948L154.733 155.899ZM218.742 154.782L218.293 154.501C218.784 153.721 219.29 152.942 219.796 152.169L220.238 152.457C219.768 153.244 219.262 154.023 218.777 154.796L218.742 154.782ZM222.17 149.584L221.735 149.282C222.262 148.523 222.802 147.771 223.35 147.02L223.772 147.329C223.257 148.083 222.735 148.849 222.205 149.626L222.17 149.584ZM225.865 144.575L225.451 144.245C226.034 143.507 226.624 142.784 227.207 142.088L227.614 142.433C227.066 143.135 226.476 143.852 225.879 144.589L225.865 144.575ZM229.897 139.841L229.511 139.482C230.143 138.78 230.797 138.127 231.443 137.48L231.815 137.853C231.204 138.513 230.565 139.18 229.933 139.855L229.897 139.841ZM234.323 135.485L233.972 135.092C234.674 134.474 235.377 133.863 236.079 133.28L236.409 133.687C235.749 134.277 235.011 134.874 234.358 135.499L234.323 135.485ZM239.149 131.58L238.84 131.158C239.584 130.61 240.357 130.076 241.13 129.57L241.418 130.013C240.687 130.526 239.929 131.06 239.184 131.594L239.149 131.58ZM244.347 128.201L244.087 127.744C244.881 127.287 245.703 126.831 246.525 126.409L246.771 126.873C245.984 127.309 245.169 127.758 244.382 128.215L244.347 128.201ZM249.869 125.391L249.651 124.913C250.494 124.534 251.358 124.168 252.215 123.824L252.412 124.316C251.59 124.646 250.74 125.04 249.904 125.384L249.869 125.391ZM255.643 123.122L255.474 122.623C256.345 122.321 257.238 122.04 258.13 121.773L258.277 122.279C257.427 122.532 256.542 122.82 255.678 123.115L255.643 123.122Z" fill="#263238"/>
<path d="M261.768 121.323L261.642 120.811L263.011 120.488L263.131 121L261.768 121.323Z" fill="#263238"/>
<path d="M262.26 115.472L256.9 122.511L264.444 119.659L290.267 118.471L262.26 115.472Z" fill="#407BFF"/>
<path opacity="0.1" d="M262.26 115.472L256.9 122.511L264.444 119.659L290.267 118.471L262.26 115.472Z" fill="black"/>
<path d="M264.648 121.752L256.9 122.511L264.444 119.659L264.648 121.752Z" fill="#263238"/>
<path d="M264.445 119.659L290.268 118.472L265.449 131.116L264.445 119.659Z" fill="#407BFF"/>
<path d="M262.26 115.472L254.554 106.241L290.267 118.471L262.26 115.472Z" fill="#407BFF"/>
<path d="M56.0569 302.821L186.014 303.383C217.625 278.578 220.863 241.832 198.328 219.564C184.693 206.09 167.377 208.809 150.883 206.667H150.841C145.095 205.915 139.461 204.559 134.115 201.749C117.137 192.793 107.562 171.662 93.2807 153.89C91.4965 151.656 89.6232 149.495 87.661 147.406C75.9157 134.86 52.5375 134.453 40.3075 152.085C9.24431 196.888 23.4763 263.581 56.0569 302.821Z" fill="#407BFF"/>
<path opacity="0.2" d="M56.0569 302.821L186.014 303.383C217.625 278.578 220.863 241.832 198.328 219.564C184.693 206.09 167.377 208.809 150.883 206.667H150.841C145.095 205.915 139.461 204.559 134.115 201.749C117.137 192.793 107.562 171.662 93.2807 153.89C91.4965 151.656 89.6232 149.495 87.661 147.406C75.9157 134.86 52.5375 134.453 40.3075 152.085C9.24431 196.888 23.4763 263.581 56.0569 302.821Z" fill="black"/>
<path opacity="0.1" d="M53.1702 200.309C56.5842 253.592 118.142 273.521 156.602 257.553C190.032 243.666 179.081 211.97 150.87 206.667H150.828C145.081 205.915 139.448 204.559 134.102 201.749C117.123 192.793 107.548 171.663 93.2672 153.89C71.9824 142.833 50.6765 161.273 53.1702 200.309Z" fill="black"/>
<path d="M167.821 307.042C165.945 306.34 123.607 272.516 122.806 270.205C122.497 269.334 127.07 262.878 132.809 255.235C134.046 253.585 135.338 251.892 136.659 250.178C145.215 239.029 154.551 227.396 154.551 227.396L182.945 249.953L164.266 272.109L160.171 276.977C160.171 276.977 170.588 297.18 171.192 299.807C171.797 302.434 169.682 307.731 167.821 307.042Z" fill="#C95F50"/>
<path d="M167.82 307.042C165.945 306.34 123.607 272.516 122.806 270.205C122.434 269.137 129.255 259.836 136.659 250.177L164.266 272.109L160.17 276.977C160.17 276.977 170.588 297.18 171.192 299.807C171.796 302.434 169.682 307.731 167.82 307.042Z" fill="white"/>
<path d="M167.821 307.042C165.945 306.34 123.607 272.516 122.806 270.205C122.497 269.334 127.07 262.878 132.809 255.235L160.171 277.012C160.171 277.012 170.588 297.215 171.192 299.842C171.797 302.469 169.682 307.731 167.821 307.042Z" fill="#407BFF"/>
<path d="M168.565 304.872C161.611 299.027 132.992 276.071 125.672 270.851C125.609 270.809 125.581 270.851 125.672 270.893C132.437 276.836 161.238 299.533 168.523 304.984C168.628 305.097 168.712 304.984 168.565 304.872Z" fill="#263238"/>
<path d="M169.682 296.112C168.912 295.46 168.014 294.976 167.047 294.689C166.079 294.403 165.063 294.32 164.062 294.447C162.257 294.663 160.604 295.566 159.447 296.969C159.412 297.011 159.489 297.074 159.531 297.039C160.895 295.826 162.615 295.087 164.434 294.935C166.253 294.783 168.073 295.226 169.619 296.196C169.682 296.238 169.738 296.154 169.682 296.112Z" fill="#263238"/>
<path d="M162.355 279.878C159.545 277.567 155.457 275.944 151.818 276.85C151.677 276.885 151.727 277.089 151.818 277.11C155.344 277.793 158.788 278.853 162.088 280.271C162.114 280.289 162.143 280.301 162.173 280.307C162.204 280.314 162.235 280.314 162.266 280.308C162.297 280.302 162.326 280.29 162.352 280.273C162.378 280.256 162.401 280.234 162.418 280.208C162.436 280.182 162.448 280.153 162.454 280.123C162.461 280.092 162.461 280.061 162.455 280.03C162.449 279.999 162.437 279.97 162.42 279.944C162.403 279.918 162.381 279.895 162.355 279.878Z" fill="#263238"/>
<path d="M163.866 282.484C161.056 280.18 156.96 278.55 153.329 279.463C153.188 279.499 153.237 279.695 153.329 279.716C156.853 280.4 160.294 281.459 163.592 282.877C163.618 282.895 163.647 282.908 163.677 282.915C163.708 282.922 163.74 282.922 163.771 282.917C163.802 282.911 163.831 282.9 163.858 282.883C163.884 282.866 163.907 282.844 163.925 282.818C163.943 282.792 163.956 282.763 163.963 282.732C163.97 282.701 163.97 282.67 163.965 282.639C163.959 282.608 163.947 282.578 163.931 282.551C163.914 282.525 163.891 282.502 163.866 282.484Z" fill="#263238"/>
<path d="M165.376 285.097C162.566 282.786 158.471 281.156 154.839 282.07C154.698 282.07 154.748 282.301 154.839 282.33C158.363 283.01 161.804 284.068 165.102 285.484C165.153 285.52 165.217 285.534 165.279 285.524C165.341 285.513 165.396 285.479 165.432 285.427C165.468 285.376 165.483 285.313 165.472 285.251C165.462 285.189 165.427 285.134 165.376 285.097Z" fill="#263238"/>
<path d="M166.872 287.703C164.062 285.392 159.966 283.763 156.334 284.676C156.194 284.711 156.243 284.908 156.334 284.936C159.859 285.617 163.299 286.674 166.598 288.09C166.623 288.108 166.652 288.121 166.682 288.128C166.712 288.134 166.744 288.135 166.774 288.13C166.805 288.125 166.834 288.114 166.861 288.097C166.887 288.081 166.91 288.059 166.928 288.034C166.946 288.008 166.959 287.98 166.965 287.949C166.972 287.919 166.973 287.888 166.968 287.857C166.963 287.826 166.952 287.797 166.935 287.771C166.918 287.744 166.897 287.721 166.872 287.703Z" fill="#263238"/>
<path d="M132.865 265.534C129.669 262.998 125.721 267.957 128.917 270.5C132.114 273.043 136.062 268.091 132.865 265.534Z" fill="white"/>
<path d="M171.487 274.75C171.003 272.411 168.256 272.13 166.38 272.642C163.176 273.611 160.283 275.407 157.993 277.848C157.981 277.856 157.972 277.867 157.965 277.88C157.959 277.893 157.955 277.907 157.955 277.922C157.955 277.936 157.959 277.95 157.965 277.963C157.972 277.976 157.981 277.987 157.993 277.995C157.961 278.057 157.944 278.126 157.944 278.196C157.944 278.266 157.96 278.335 157.991 278.397C158.023 278.46 158.069 278.514 158.125 278.555C158.182 278.596 158.247 278.623 158.316 278.635C161.456 278.852 164.793 279.477 167.905 278.719C169.752 278.297 171.944 276.97 171.487 274.75ZM163.177 278.002C161.625 277.939 160.093 277.792 158.548 277.778C160.15 276.718 161.805 275.74 163.507 274.848C164.339 274.429 165.198 274.065 166.078 273.759C167.448 273.317 172.134 273.169 169.942 276.485C168.741 278.318 165.017 278.087 163.177 278.002Z" fill="#263238"/>
<path d="M150.097 273.261C152.267 275.614 155.379 276.949 158.112 278.515C158.175 278.545 158.245 278.558 158.315 278.556C158.385 278.553 158.453 278.534 158.514 278.499C158.575 278.465 158.627 278.417 158.666 278.358C158.705 278.3 158.729 278.234 158.737 278.164C158.8 278.164 158.856 278.129 158.842 278.052C158.293 274.751 156.885 271.652 154.761 269.067C153.497 267.585 151.059 266.292 149.352 267.971C147.645 269.65 148.825 271.898 150.097 273.261ZM149.675 270.268C149.675 266.299 153.511 269.025 154.403 270.156C154.965 270.898 155.476 271.677 155.934 272.488C156.853 274.175 157.685 275.908 158.428 277.679C157.135 276.829 155.78 276.099 154.452 275.298C152.878 274.35 149.661 272.474 149.675 270.282V270.268Z" fill="#263238"/>
<path d="M211.612 206.582C209.666 221.334 173.321 263.904 169.12 268.793L168.165 269.903L138.071 246.799L138.415 246.349L164.891 211.682L85.9194 211.219L115.908 187.904C115.908 187.904 118.338 189.309 123.396 188.571C140.824 186.021 180.121 180.373 189.386 180.745C201.363 181.237 213.397 193.053 211.612 206.582Z" fill="#37474F"/>
<path d="M174.43 198.799C173.447 199.912 172.535 201.085 171.698 202.311C170.764 203.541 169.815 204.756 168.888 205.985V206.02C169.05 205.662 169.211 205.318 169.387 204.938C169.977 203.723 170.447 202.459 171.143 201.293C171.185 201.215 171.08 201.152 171.038 201.222C170.335 202.381 169.485 203.484 168.874 204.735C168.586 205.311 168.312 205.887 168.059 206.477C167.919 206.8 167.771 207.13 167.652 207.453C167.583 207.609 167.524 207.768 167.476 207.931C167.055 208.5 166.647 209.069 166.24 209.652C165.348 210.945 164.561 212.307 163.662 213.593C163.612 213.656 163.725 213.719 163.774 213.656C164.687 212.455 165.713 211.331 166.64 210.144C167.567 208.957 168.481 207.671 169.366 206.414C170.251 205.156 171.073 203.941 171.937 202.712C172.883 201.497 173.753 200.226 174.543 198.904C174.529 198.799 174.473 198.757 174.43 198.799Z" fill="#263238"/>
<path d="M99.7369 166.57C106.277 183.338 127.133 202.887 134.228 203.52C142.489 204.264 163.83 194.788 172.091 183.303C174.044 180.584 156.553 167.623 153.595 169.654C147.526 173.812 136.09 179.488 135.106 179.53C133.153 179.678 120.172 169.513 109.817 162.25C96.92 153.223 97.1307 159.889 99.7369 166.57Z" fill="#C95F50"/>
<path d="M169.569 186.344C169.569 186.344 177.135 178.533 177.936 171.178C178.491 166.085 177.971 152.583 165.727 143.437C162.819 141.267 157.143 140.241 160.599 145.503C163.058 149.247 165.741 150.876 166.774 153.307C166.774 153.307 159.398 152.857 157.339 155.85C155.54 158.467 153.93 161.209 152.521 164.055C152.981 164.437 153.467 164.786 153.975 165.102C153.975 165.102 152.31 168.08 153.462 173.131L169.569 186.344Z" fill="#C95F50"/>
<path d="M151.495 138.197L143.066 164.891C142.736 165.671 143.066 166.338 143.874 166.38L157.874 167.188C158.302 167.182 158.719 167.054 159.076 166.819C159.433 166.583 159.716 166.251 159.89 165.86L168.284 139.166C168.622 138.387 168.284 137.719 167.484 137.67L153.526 136.876C153.097 136.881 152.678 137.008 152.319 137.242C151.959 137.476 151.674 137.807 151.495 138.197Z" fill="#A6A6A6"/>
<path d="M153.152 138.281L144.723 164.975C144.392 165.748 144.723 166.422 145.53 166.464L159.495 167.279C159.924 167.271 160.341 167.142 160.699 166.907C161.057 166.673 161.341 166.341 161.519 165.951L169.906 139.258C170.243 138.478 169.906 137.818 169.105 137.768L155.175 136.982C154.75 136.987 154.335 137.112 153.977 137.341C153.62 137.571 153.334 137.897 153.152 138.281Z" fill="#C7C7C7"/>
<path d="M156.911 139.742C156.892 139.976 156.804 140.2 156.659 140.384C156.513 140.568 156.316 140.705 156.093 140.777C155.869 140.849 155.63 140.853 155.404 140.789C155.178 140.725 154.976 140.596 154.824 140.417C154.672 140.238 154.576 140.018 154.549 139.785C154.521 139.552 154.564 139.316 154.671 139.107C154.777 138.898 154.944 138.725 155.149 138.611C155.354 138.496 155.588 138.445 155.822 138.464C155.978 138.476 156.129 138.519 156.268 138.59C156.407 138.661 156.53 138.759 156.632 138.878C156.733 138.996 156.809 139.134 156.857 139.282C156.905 139.431 156.924 139.587 156.911 139.742Z" fill="#263238"/>
<path d="M177.198 163.935C175.66 161.737 172.33 157.128 168.291 154.305C163.809 151.172 154.319 146.339 152.043 149.675C150.371 152.12 153.827 154.283 153.827 154.283C153.827 154.283 149.486 153.11 148.46 155.688C147.526 158 150.3 159.51 150.3 159.51C150.3 159.51 147.547 159.257 147.069 161.659C146.507 164.547 152.373 164.61 154.326 168.038C154.761 168.768 177.198 163.935 177.198 163.935Z" fill="#C95F50"/>
<path d="M165.769 159.594C162.461 156.645 158.331 154.775 153.932 154.234C153.82 154.234 153.75 154.304 153.855 154.333C158.016 155.615 162.007 157.395 165.741 159.636C165.741 159.636 165.79 159.615 165.769 159.594Z" fill="#263238"/>
<path d="M162.475 164.034C160.775 162.629 155.352 159.622 150.336 159.383C150.224 159.383 150.16 159.461 150.266 159.489C154.486 160.554 158.572 162.093 162.447 164.076C162.447 164.076 162.496 164.048 162.475 164.034Z" fill="#263238"/>
<path d="M153.377 166.815C153.377 168.438 153.377 170.012 153.56 171.578C153.63 172.365 153.757 173.138 153.897 173.91C154.069 174.687 154.283 175.454 154.536 176.207C153.552 174.88 152.972 173.297 152.864 171.648C152.791 170.833 152.791 170.012 152.864 169.197C152.936 168.385 153.108 167.585 153.377 166.815Z" fill="#263238"/>
<path d="M108.602 183.921L121.5 169.513C121.5 169.513 111.244 160.725 103.819 157.402C96.3935 154.08 95.3398 158.871 98.6063 166.099C101.873 173.327 108.602 183.921 108.602 183.921Z" fill="#C7C7C7"/>
<path d="M118.072 173.334L108.602 183.921C108.602 183.921 101.873 173.327 98.6062 166.099C96.1546 160.662 96.1265 156.601 99.4351 156.342L118.072 173.334Z" fill="#A6A6A6"/>
<path d="M117.811 167.328C115.626 169.38 109.873 175.133 106.649 179.376C106.649 179.376 106.726 179.495 106.747 179.467C109.986 176.369 115.964 169.703 117.945 167.462C117.987 167.42 117.853 167.293 117.811 167.328Z" fill="#263238"/>
<path d="M69.278 219.873C69.4114 220.014 120.804 208.753 121.261 208.156C121.963 207.313 112.74 168.663 103.053 157.135C100.629 154.248 92.9161 154.445 89.4599 157.36C72.3688 171.768 68.7863 219.36 69.278 219.873Z" fill="#EBEBEB"/>
<path fill-rule="evenodd" clip-rule="evenodd" d="M100.502 155.555L88.4551 158.28C88.7712 157.964 89.0943 157.676 89.4175 157.402L99.0764 155.225C99.5593 155.299 100.036 155.41 100.502 155.555ZM102.28 156.405L86.9096 159.875C86.6638 160.142 86.432 160.409 86.2072 160.69L102.891 156.925C102.705 156.732 102.5 156.557 102.28 156.405ZM103.748 157.978L85.027 162.193C84.8303 162.446 84.6477 162.706 84.465 162.973L104.134 158.526C104.029 158.351 103.895 158.161 103.748 157.978ZM104.907 159.622L83.4886 164.455C83.327 164.708 83.1655 164.961 83.0109 165.221L105.272 160.163L104.907 159.622ZM105.933 161.294L82.168 166.661L81.7605 167.413L106.27 161.877L105.933 161.294ZM106.881 162.973L81.0159 168.81L80.6506 169.513L107.162 163.57L106.881 162.973ZM107.752 164.673L79.9903 170.946C79.8779 171.185 79.7726 171.431 79.6602 171.648L108.04 165.235C107.949 165.08 107.864 164.884 107.752 164.687V164.673ZM108.574 166.387L79.0701 173.053L78.775 173.756L108.862 166.963C108.763 166.794 108.672 166.598 108.567 166.401L108.574 166.387ZM109.361 168.115L78.2131 175.14C78.1147 175.379 78.0234 175.617 77.9321 175.842L109.627 168.684C109.536 168.522 109.452 168.326 109.361 168.129V168.115ZM110.112 169.85L77.4333 177.233C77.3443 177.472 77.2601 177.706 77.1804 177.936L110.365 170.44L110.112 169.85ZM110.815 171.592L76.6957 179.319C76.6114 179.558 76.5342 179.79 76.4569 180.022L111.054 172.21C110.99 172.007 110.906 171.803 110.829 171.606L110.815 171.592ZM111.517 173.341L76.0354 181.357C75.9652 181.595 75.8879 181.827 75.8177 182.059L111.749 173.939L111.517 173.341ZM112.22 175.098L75.4172 183.415L75.2065 184.117L112.437 175.688L112.22 175.098ZM112.859 176.854L74.8482 185.452C74.778 185.684 74.7148 185.923 74.6515 186.154L113.056 177.472C112.971 177.268 112.901 177.065 112.824 176.868L112.859 176.854ZM113.484 178.617L74.2863 187.475C74.2301 187.707 74.1668 187.939 74.1106 188.178L113.66 179.242L113.484 178.617ZM114.088 180.38L73.8156 189.477C73.75 189.711 73.6938 189.945 73.647 190.18L114.292 180.998C114.187 180.802 114.123 180.598 114.053 180.394L114.088 180.38ZM114.685 182.157L73.3309 191.493C73.2747 191.725 73.2255 191.957 73.1693 192.196L114.882 182.776C114.784 182.579 114.713 182.375 114.65 182.171L114.685 182.157ZM115.254 183.928L72.8813 193.502L72.7338 194.205L115.451 184.56C115.353 184.356 115.289 184.145 115.219 183.942L115.254 183.928ZM115.816 185.705L72.4598 195.497C72.4107 195.729 72.3615 195.961 72.3193 196.2L116.006 186.365L115.816 185.705ZM116.364 187.489L72.0384 197.506C71.9962 197.738 71.947 197.97 71.9119 198.209L116.519 188.128C116.448 187.911 116.385 187.707 116.329 187.503L116.364 187.489ZM116.891 189.266L71.652 199.501C71.6099 199.726 71.5677 199.958 71.5326 200.204L117.032 189.927C116.996 189.667 116.912 189.491 116.856 189.28L116.891 189.266ZM117.404 191.058L71.3359 201.475C71.2937 201.707 71.2516 201.932 71.2165 202.178L117.579 191.711C117.488 191.486 117.432 191.282 117.369 191.072L117.404 191.058ZM117.91 192.849L71.0128 203.435L70.9074 204.138L118.085 193.488C117.987 193.278 117.931 193.074 117.874 192.863L117.91 192.849ZM118.394 194.64L70.7107 205.409L70.6053 206.112L118.528 195.287C118.479 195.069 118.401 194.865 118.359 194.654L118.394 194.64ZM118.879 196.439L70.4086 207.383C70.4086 207.615 70.3454 207.833 70.3173 208.086L119.027 197.085C118.949 196.867 118.9 196.692 118.844 196.453L118.879 196.439ZM119.336 198.237L70.1628 209.343L70.0785 210.045L119.497 198.883C119.413 198.672 119.357 198.462 119.301 198.251L119.336 198.237ZM119.785 200.035L69.9099 211.275C69.9099 211.507 69.8607 211.731 69.8326 211.977L119.919 200.66L119.785 200.035ZM120.214 201.841L69.7062 213.249C69.7062 213.483 69.6851 213.717 69.6429 213.951L120.354 202.494C120.277 202.311 120.228 202.065 120.179 201.855L120.214 201.841ZM120.621 203.653L69.5235 215.195C69.5235 215.426 69.4814 215.651 69.4673 215.897L120.748 204.313C120.677 204.096 120.635 203.885 120.586 203.667L120.621 203.653ZM120.993 205.479L69.369 217.14C69.369 217.372 69.369 217.597 69.3268 217.801L121.113 206.105C121.043 205.922 121 205.718 120.958 205.493L120.993 205.479ZM121.303 207.313L69.2285 219.079C69.2175 219.297 69.2175 219.515 69.2285 219.732L121.303 207.973C121.303 207.757 121.291 207.541 121.267 207.327L121.303 207.313Z" fill="#DBDBDB"/>
<path d="M100.769 166.05C98.4302 166.317 93.253 162.277 91.0894 158.716C90.9489 158.47 91.2089 155.815 91.3845 152.569C91.4758 150.602 91.539 148.411 91.4477 146.409L104.162 148.902C103.556 151.433 103.264 154.028 103.291 156.63C103.304 156.904 103.344 157.177 103.411 157.444C103.411 157.487 103.411 157.529 103.411 157.578C103.762 159.159 104.429 165.628 100.769 166.05Z" fill="#C95F50"/>
<path d="M103.411 157.473C103.411 157.515 103.411 157.55 103.411 157.613C102.984 157.688 102.552 157.727 102.118 157.733C94.9601 157.894 92.8245 149.261 92.3398 146.591L104.162 148.924C103.56 151.455 103.265 154.049 103.284 156.651C103.307 156.927 103.349 157.202 103.411 157.473Z" fill="#263238"/>
<path d="M87.5841 130.961C86.8324 135.57 90.8857 148.031 94.4121 150.455C99.5261 153.967 107.057 153.363 109.817 147.413C112.508 141.639 106.937 125.489 103.074 123.375C97.3835 120.256 88.701 124.162 87.5841 130.961Z" fill="#C95F50"/>
<path d="M97.6153 134.762C97.9595 134.558 98.2405 134.312 98.5636 134.059C98.8868 133.806 99.2661 133.617 99.3996 133.181C99.4399 133.048 99.4325 132.905 99.3787 132.777C99.3248 132.649 99.2278 132.543 99.1045 132.479C98.8551 132.386 98.5854 132.362 98.3235 132.409C98.0616 132.456 97.8171 132.572 97.6153 132.746C97.1529 133.038 96.8151 133.491 96.667 134.017C96.6288 134.142 96.6293 134.275 96.6683 134.4C96.7074 134.524 96.7832 134.634 96.8858 134.715C96.9885 134.795 97.1131 134.843 97.2433 134.851C97.3735 134.86 97.5032 134.828 97.6153 134.762Z" fill="#263238"/>
<path d="M105.961 132.317C105.572 132.338 105.183 132.338 104.795 132.317C104.384 132.387 103.962 132.32 103.593 132.128C103.493 132.044 103.422 131.932 103.39 131.805C103.359 131.679 103.368 131.546 103.418 131.425C103.561 131.199 103.763 131.014 104.001 130.891C104.239 130.767 104.506 130.709 104.774 130.723C105.315 130.674 105.855 130.827 106.291 131.151C106.397 131.229 106.478 131.338 106.521 131.462C106.564 131.587 106.567 131.722 106.531 131.849C106.495 131.976 106.422 132.089 106.319 132.173C106.217 132.256 106.092 132.307 105.961 132.317Z" fill="#263238"/>
<path d="M101.079 144.435C101.339 144.575 101.62 144.793 101.936 144.73C102.249 144.631 102.538 144.468 102.786 144.252C102.786 144.252 102.849 144.252 102.835 144.252C102.764 144.455 102.638 144.634 102.472 144.77C102.306 144.906 102.106 144.994 101.894 145.025C101.708 145.03 101.524 144.98 101.367 144.881C101.209 144.783 101.085 144.639 101.008 144.47C100.98 144.456 101.044 144.421 101.079 144.435Z" fill="#263238"/>
<path d="M101.233 141.639C101.547 141.909 101.913 142.111 102.308 142.231C102.703 142.352 103.12 142.39 103.53 142.341C103.892 142.31 104.247 142.225 104.584 142.089C104.649 142.068 104.713 142.042 104.774 142.011L104.956 141.927C104.998 141.904 105.031 141.869 105.051 141.826C105.071 141.783 105.078 141.735 105.069 141.688L105.034 141.604V141.534C104.865 140.873 104.514 139.897 104.514 139.897C104.788 139.946 106.158 140.143 106.045 139.806C105.113 136.879 103.887 134.055 102.385 131.376C102.376 131.355 102.359 131.339 102.338 131.332C102.317 131.324 102.293 131.324 102.273 131.334C102.252 131.343 102.236 131.36 102.229 131.381C102.221 131.402 102.221 131.426 102.231 131.446C103.081 134.144 104.394 136.68 105.287 139.384C104.795 139.314 104.296 139.314 103.804 139.384C103.72 139.433 104.507 141.253 104.57 141.555C104.572 141.566 104.572 141.578 104.57 141.59C104.05 141.796 103.494 141.897 102.934 141.886C102.374 141.875 101.822 141.753 101.311 141.527C101.212 141.513 101.163 141.59 101.233 141.639Z" fill="#263238"/>
<path d="M104.106 141.899C103.88 142.468 103.512 142.971 103.038 143.36C102.776 143.563 102.457 143.678 102.125 143.69C101.423 143.69 101.198 143.093 101.163 142.524C101.153 142.223 101.176 141.921 101.233 141.625C102.137 142.022 103.144 142.118 104.106 141.899Z" fill="#263238"/>
<path d="M103.039 143.353C102.776 143.556 102.457 143.671 102.125 143.683C101.423 143.683 101.198 143.086 101.163 142.517C101.524 142.425 101.906 142.458 102.246 142.61C102.586 142.761 102.865 143.023 103.039 143.353Z" fill="#FF9BBC"/>
<path d="M98.3321 136.841C98.3173 136.598 98.3682 136.355 98.4796 136.139C98.5433 136.024 98.6307 135.923 98.7361 135.845C98.8414 135.766 98.9623 135.71 99.0908 135.682C99.2216 135.655 99.357 135.659 99.4862 135.693C99.6154 135.727 99.7349 135.791 99.8354 135.879C100.007 136.038 100.139 136.236 100.222 136.455C100.274 136.584 100.314 136.718 100.341 136.855C100.408 137.139 100.408 137.435 100.341 137.719C100.308 137.512 100.251 137.31 100.173 137.115C100.107 136.938 100.027 136.766 99.9337 136.602C99.7371 136.265 99.4561 136.012 99.1751 136.097C98.8941 136.181 98.7044 136.448 98.6623 136.834C98.624 137.236 98.624 137.641 98.6623 138.042C98.4619 137.672 98.349 137.261 98.3321 136.841Z" fill="#263238"/>
<path d="M106.558 134.221C106.442 134.014 106.275 133.84 106.073 133.715C105.957 133.653 105.829 133.615 105.697 133.604C105.565 133.593 105.433 133.61 105.308 133.652C105.183 133.7 105.071 133.777 104.981 133.876C104.891 133.974 104.825 134.092 104.788 134.221C104.728 134.451 104.728 134.693 104.788 134.923C104.818 135.061 104.855 135.197 104.9 135.331C105.001 135.596 105.159 135.836 105.364 136.033C105.281 135.842 105.22 135.641 105.181 135.436C105.148 135.25 105.125 135.063 105.111 134.874C105.111 134.488 105.202 134.122 105.483 134.038C105.642 133.999 105.808 134.013 105.958 134.077C106.108 134.142 106.232 134.254 106.312 134.396C106.551 134.722 106.758 135.07 106.93 135.436C106.903 135.007 106.776 134.591 106.558 134.221Z" fill="#263238"/>
<path d="M106.368 127.035C102.547 131.151 95.3041 127.871 95.3041 127.871C95.1356 128.939 94.6283 129.926 93.8568 130.685C93.0854 131.444 92.0906 131.934 91.0191 132.085C91.0191 132.085 91.855 139.925 89.8389 140.367C86.7621 141.07 83.4535 130.835 83.9593 128.573C84.465 126.311 86.9588 125.187 86.9588 125.187C86.9617 123.88 87.4643 122.623 88.3637 121.675C90.0988 119.567 97.833 120.115 97.833 120.115C98.0269 119.053 98.4699 118.051 99.1256 117.193C99.2811 116.978 99.4789 116.797 99.707 116.661C99.935 116.525 100.188 116.438 100.452 116.403C100.715 116.369 100.982 116.389 101.237 116.462C101.493 116.535 101.73 116.66 101.935 116.828C101.679 117.479 101.573 118.181 101.626 118.879C101.767 121.197 103.6 120.783 103.123 118.759C102.973 117.994 102.551 117.308 101.935 116.828C102.54 115.296 103.916 114.531 104.97 115.043C106.867 115.992 109.55 123.635 106.368 127.035Z" fill="#263238"/>
<path d="M99.9616 141.063C99.2938 141.195 98.6024 141.136 97.9661 140.895C97.3298 140.653 96.774 140.238 96.3619 139.696C95.9498 139.154 95.6979 138.508 95.6348 137.83C95.5717 137.152 95.7 136.471 96.0051 135.862C96.3101 135.254 96.7798 134.743 97.3606 134.388C97.9414 134.033 98.6101 133.848 99.2907 133.854C99.9714 133.86 100.637 134.057 101.211 134.423C101.785 134.788 102.246 135.307 102.54 135.921C102.955 136.79 103.01 137.789 102.691 138.699C102.373 139.608 101.707 140.355 100.84 140.775C100.562 140.912 100.266 141.009 99.9616 141.063ZM98.6409 134.397C98.3839 134.449 98.1339 134.531 97.8963 134.642C97.1697 134.987 96.6019 135.596 96.3086 136.345C96.0153 137.094 96.0186 137.927 96.3178 138.674C96.617 139.42 97.1895 140.025 97.9189 140.364C98.6482 140.704 99.4794 140.752 100.243 140.5C101.007 140.248 101.646 139.714 102.03 139.007C102.414 138.3 102.514 137.473 102.31 136.695C102.105 135.917 101.612 135.246 100.931 134.819C100.249 134.392 99.4301 134.241 98.6409 134.397Z" fill="#407BFF"/>
<path d="M107.731 138.492C106.326 138.696 104.921 137.466 104.394 135.633C104.143 134.761 104.17 133.833 104.472 132.978C104.579 132.601 104.781 132.259 105.059 131.984C105.337 131.709 105.682 131.511 106.059 131.409C106.437 131.306 106.834 131.303 107.214 131.399C107.593 131.496 107.94 131.689 108.223 131.959C108.917 132.547 109.409 133.338 109.628 134.221C110.155 136.153 109.41 138.049 107.963 138.436L107.731 138.492ZM106.368 131.847L106.186 131.882C105.89 131.977 105.622 132.142 105.404 132.361C105.185 132.581 105.022 132.85 104.928 133.146C104.66 133.907 104.638 134.733 104.865 135.507C105.322 137.185 106.649 138.316 107.836 137.972C109.024 137.628 109.614 136.026 109.157 134.347C108.966 133.563 108.53 132.86 107.914 132.338C107.705 132.152 107.46 132.012 107.194 131.927C106.927 131.842 106.646 131.815 106.368 131.847Z" fill="#407BFF"/>
<path d="M102.553 136.363L102.146 136.103C102.525 135.492 103.551 134.509 104.689 135.141L104.45 135.563C103.432 134.994 102.589 136.279 102.553 136.363Z" fill="#407BFF"/>
<path d="M87.409 142.25L86.9243 142.166C86.9665 141.941 87.3177 139.967 88.3293 139.461C89.3408 138.955 95.642 137.572 95.9089 137.508L96.0143 137.986C94.1808 138.393 89.2565 139.531 88.547 139.897C87.8375 140.262 87.4933 141.702 87.409 142.25Z" fill="#407BFF"/>
<path d="M91.7079 141.007C91.7079 141.007 88.1955 137.333 86.4815 138.654C84.7675 139.974 87.8864 145.608 90.1835 146.079C90.477 146.162 90.7842 146.184 91.0867 146.145C91.3891 146.106 91.6805 146.006 91.9432 145.851C92.2059 145.696 92.4344 145.489 92.6149 145.244C92.7954 144.998 92.9242 144.718 92.9934 144.421L91.7079 141.007Z" fill="#C95F50"/>
<path d="M87.4157 140.248C87.3736 140.248 87.4157 140.297 87.4157 140.304C89.0525 140.691 90.0851 141.99 90.8789 143.381C90.7651 143.241 90.6224 143.128 90.4607 143.048C90.299 142.969 90.122 142.926 89.9418 142.921C89.7617 142.916 89.5827 142.95 89.4171 143.021C89.2514 143.092 89.1031 143.198 88.9822 143.332C88.9471 143.367 88.9822 143.423 89.0384 143.409C89.2964 143.283 89.587 143.239 89.8708 143.283C90.1547 143.327 90.4182 143.457 90.626 143.655C90.9698 143.991 91.276 144.363 91.5392 144.765C91.6305 144.891 91.8694 144.765 91.7921 144.624C91.497 142.601 89.5512 140.115 87.4157 140.248Z" fill="#263238"/>
<path d="M85.2169 171.62C88.7855 193.467 97.6858 207.657 101.851 208.345C113.056 210.193 132.008 191.866 137.677 187.566C139.96 185.824 121.324 170.229 119.125 172.365C113.927 177.395 106.944 185.29 106.579 185.375C105.877 185.55 103.207 180.584 94.2577 166.535C86.9942 155.162 83.7628 162.692 85.2169 171.62Z" fill="#C95F50"/>
<path d="M148.032 151.305C149.584 153.665 143.438 156.988 143.438 156.988C144.655 156.995 145.832 157.43 146.761 158.217C148.334 159.671 146.761 162.783 146.761 162.783C148.021 163.054 149.172 163.698 150.062 164.631C151.425 166.176 150.259 169.548 150.259 169.548C151.263 170.45 151.925 171.671 152.134 173.004C152.837 178.975 139.813 187.51 135.584 189.161L118.493 173.707C118.493 173.707 124.815 159.531 130 155.871C132.845 153.841 145.665 147.694 148.032 151.305Z" fill="#C95F50"/>
<path d="M143.346 156.953C139.672 158.063 136.265 160.051 132.998 162.004C132.928 162.046 132.998 162.158 133.069 162.116C136.293 160.135 140.128 158.969 143.423 157.121C143.514 157.072 143.444 156.925 143.346 156.953Z" fill="#263238"/>
<path d="M146.5 162.594C145.687 162.926 144.922 163.366 144.224 163.9C143.452 164.413 142.693 164.94 141.941 165.481C140.431 166.563 138.942 167.679 137.495 168.846C137.424 168.895 137.495 169.007 137.558 168.958C139.068 167.876 140.592 166.851 142.138 165.811C142.918 165.305 143.697 164.806 144.484 164.315C145.252 163.892 145.973 163.388 146.634 162.811C146.718 162.72 146.62 162.551 146.5 162.594Z" fill="#263238"/>
<path d="M150.174 169.59C149.445 169.9 148.775 170.333 148.193 170.869L146.148 172.379C144.786 173.377 143.416 174.381 142.018 175.329C142.003 175.339 141.992 175.354 141.989 175.371C141.985 175.388 141.988 175.406 141.997 175.421C142.006 175.436 142.021 175.446 142.038 175.45C142.055 175.454 142.073 175.451 142.088 175.442C143.493 174.486 144.954 173.545 146.373 172.569C147.076 172.091 147.778 171.613 148.481 171.164C149.153 170.781 149.753 170.281 150.251 169.689C150.264 169.678 150.272 169.663 150.274 169.647C150.276 169.63 150.272 169.614 150.261 169.601C150.251 169.588 150.236 169.579 150.22 169.577C150.203 169.575 150.187 169.58 150.174 169.59Z" fill="#263238"/>
<path d="M151.417 171.051C152.055 171.972 152.342 173.091 152.225 174.205C152.08 175.32 151.652 176.38 150.982 177.282C149.721 179.085 148.255 180.736 146.613 182.2C144.988 183.678 143.25 185.026 141.414 186.232C139.58 187.437 137.64 188.474 135.619 189.33H135.668C134.38 190.388 133.083 191.43 131.776 192.456C132.971 191.294 134.179 190.152 135.401 189.028C137.352 188.074 139.231 186.977 141.021 185.747C142.806 184.527 144.512 183.194 146.128 181.757C147.749 180.335 149.233 178.764 150.56 177.065C151.223 176.247 151.682 175.284 151.902 174.255C152.122 173.163 151.951 172.029 151.417 171.051Z" fill="#263238"/>
<path d="M87.4152 189.379L104.605 180.535C104.605 180.535 98.184 168.67 92.4097 162.903C86.6354 157.135 83.9801 161.245 84.4297 169.162C84.8793 177.079 87.4152 189.379 87.4152 189.379Z" fill="#C7C7C7"/>
<path d="M101.542 177.205C98.7676 178.343 91.3425 181.652 86.7905 184.462C86.7905 184.462 86.7905 184.595 86.8467 184.581C90.9772 182.846 98.9433 178.765 101.599 177.381C101.669 177.353 101.592 177.184 101.542 177.205Z" fill="#263238"/>
<path d="M277.581 268.695C276.879 270.563 242.914 312.796 240.596 313.589C239.725 313.892 233.283 309.304 225.662 303.537C224.018 302.294 222.325 300.994 220.611 299.667C209.491 291.075 197.893 281.69 197.893 281.69L220.534 253.374L242.633 272.123L247.487 276.232C247.487 276.232 267.726 265.885 270.353 265.288C272.98 264.691 278.27 266.819 277.581 268.695Z" fill="#C95F50"/>
<path d="M277.581 268.695C276.879 270.563 242.914 312.796 240.596 313.589C239.528 313.955 230.249 307.106 220.611 299.666L242.633 272.137L247.487 276.246C247.487 276.246 267.725 265.899 270.353 265.302C272.98 264.705 278.27 266.819 277.581 268.695Z" fill="white"/>
<path d="M277.581 268.695C276.879 270.563 242.914 312.796 240.596 313.589C239.725 313.891 233.283 309.304 225.662 303.537L247.487 276.246C247.487 276.246 267.725 265.899 270.353 265.302C272.98 264.705 278.27 266.819 277.581 268.695Z" fill="#407BFF"/>
<path d="M275.403 267.936C269.531 274.876 246.518 303.418 241.242 310.723C241.2 310.787 241.242 310.815 241.292 310.759C247.256 304.008 270.037 275.284 275.516 268.034C275.635 267.88 275.53 267.796 275.403 267.936Z" fill="#263238"/>
<path d="M266.622 266.791C265.97 267.561 265.484 268.458 265.195 269.425C264.907 270.392 264.821 271.409 264.943 272.411C265.154 274.217 266.052 275.872 267.451 277.033C267.493 277.068 267.557 276.991 267.522 276.949C266.312 275.581 265.579 273.857 265.433 272.036C265.287 270.216 265.737 268.397 266.714 266.854C266.72 266.842 266.721 266.828 266.718 266.815C266.714 266.802 266.706 266.791 266.695 266.783C266.684 266.776 266.671 266.772 266.657 266.774C266.644 266.775 266.632 266.781 266.622 266.791Z" fill="#263238"/>
<path d="M250.403 274.069C248.078 276.878 246.441 280.96 247.34 284.606C247.375 284.746 247.572 284.69 247.6 284.57C248.293 281.05 249.362 277.614 250.789 274.321C250.823 274.27 250.834 274.208 250.822 274.148C250.809 274.088 250.774 274.035 250.722 274.002C250.671 273.968 250.609 273.956 250.549 273.969C250.489 273.982 250.436 274.017 250.403 274.069Z" fill="#263238"/>
<path d="M253.008 272.558C250.69 275.368 249.054 279.449 249.953 283.095C249.988 283.236 250.185 283.187 250.213 283.095C250.906 279.572 251.975 276.134 253.402 272.839C253.439 272.787 253.454 272.722 253.444 272.659C253.433 272.596 253.398 272.539 253.346 272.502C253.294 272.465 253.229 272.45 253.165 272.46C253.102 272.471 253.046 272.506 253.008 272.558Z" fill="#263238"/>
<path d="M255.622 271.062C253.304 273.872 251.66 277.953 252.566 281.599C252.601 281.739 252.798 281.69 252.819 281.599C253.517 278.076 254.589 274.638 256.015 271.343C256.053 271.291 256.068 271.226 256.057 271.163C256.047 271.099 256.011 271.043 255.959 271.006C255.907 270.968 255.842 270.953 255.779 270.964C255.716 270.975 255.659 271.01 255.622 271.062Z" fill="#263238"/>
<path d="M258.235 269.566C255.917 272.376 254.273 276.457 255.18 280.103C255.18 280.243 255.411 280.187 255.432 280.103C256.128 276.583 257.197 273.147 258.622 269.854C258.66 269.802 258.676 269.738 258.667 269.675C258.658 269.612 258.624 269.555 258.572 269.517C258.521 269.478 258.457 269.462 258.394 269.471C258.33 269.48 258.273 269.514 258.235 269.566Z" fill="#263238"/>
<path d="M235.974 303.516C233.424 306.698 238.37 310.667 240.927 307.471C243.484 304.275 238.524 300.32 235.974 303.516Z" fill="white"/>
<path d="M245.302 264.922C242.956 265.4 242.668 268.14 243.195 270.022C244.15 273.238 245.936 276.145 248.372 278.452C248.381 278.464 248.393 278.473 248.406 278.48C248.42 278.486 248.434 278.489 248.449 278.489C248.464 278.489 248.479 278.486 248.492 278.48C248.506 278.473 248.517 278.464 248.527 278.452C248.589 278.482 248.658 278.498 248.728 278.497C248.798 278.496 248.867 278.479 248.929 278.447C248.991 278.415 249.044 278.369 249.086 278.312C249.127 278.256 249.154 278.191 249.166 278.122C249.391 274.982 250.023 271.652 249.278 268.54C248.843 266.672 247.515 264.473 245.302 264.922ZM248.527 273.261C248.449 274.813 248.302 276.345 248.288 277.897C247.232 276.29 246.259 274.63 245.372 272.923C244.956 272.089 244.594 271.228 244.291 270.345C243.855 268.976 243.722 264.29 247.03 266.489C248.857 267.683 248.618 271.399 248.527 273.261Z" fill="#263238"/>
<path d="M243.75 286.306C246.118 284.142 247.459 281.037 249.033 278.311C249.064 278.248 249.079 278.178 249.077 278.108C249.075 278.038 249.057 277.969 249.023 277.907C248.99 277.845 248.942 277.792 248.884 277.752C248.825 277.713 248.759 277.688 248.689 277.679C248.69 277.664 248.688 277.65 248.682 277.636C248.677 277.622 248.669 277.609 248.658 277.599C248.647 277.589 248.634 277.582 248.62 277.577C248.606 277.573 248.591 277.572 248.576 277.574C245.274 278.114 242.171 279.512 239.578 281.627C238.088 282.884 236.768 285.322 238.461 287.029C240.154 288.736 242.374 287.57 243.75 286.306ZM240.765 286.72C236.789 286.685 239.529 282.877 240.66 281.992C241.404 281.432 242.185 280.922 242.999 280.468C244.691 279.554 246.428 278.726 248.204 277.988C247.347 279.281 246.609 280.63 245.802 281.957C244.846 283.531 242.957 286.741 240.765 286.72Z" fill="#263238"/>
<path d="M241.453 267.859L217.885 299.652L138.365 244.459L130.702 239.135C130.702 239.135 128.531 240.596 125.257 242.401C120.719 244.909 114.067 248.091 108.18 248.955C98.3458 250.416 81.8307 250.262 73.5065 239.121C66.4818 229.75 70.3032 217.527 70.3032 217.527L81.1704 212.911C81.1704 212.911 106.825 191.535 123.438 190.896C130.498 190.615 140.775 195.961 150.286 201.553C159.798 207.144 241.453 267.859 241.453 267.859Z" fill="#37474F"/>
<path d="M130.702 239.156C130.702 239.156 128.531 240.617 125.257 242.422C119.483 235.51 107.253 222.943 106.881 222.5L130.702 239.156Z" fill="#263238"/>
<path d="M90.5417 205.753C89.0103 206.821 87.5281 207.952 86.0178 209.041C84.5075 210.13 82.9901 211.148 81.5782 212.3C80.1662 213.452 78.7683 214.773 77.4195 216.059C76.7663 216.677 76.12 217.302 75.4878 217.948C74.8199 218.566 74.2022 219.235 73.6403 219.95C73.5911 220.021 73.6894 220.098 73.7527 220.056C74.473 219.542 75.1604 218.984 75.8109 218.384L77.9183 216.564C79.3232 215.391 80.7282 214.253 82.0839 213.052C83.4397 211.851 84.7112 210.607 86.0669 209.427C87.4227 208.247 89.0454 206.983 90.5487 205.782L90.5417 205.753Z" fill="#263238"/>
<path d="M235.918 266.721C234.387 268.372 232.975 270.149 231.549 271.891C230.123 273.633 228.69 275.403 227.278 277.159C224.468 280.672 221.602 284.184 218.848 287.774C217.324 289.734 215.813 291.708 214.394 293.752C214.331 293.843 214.479 293.941 214.549 293.864C217.591 290.52 220.372 286.952 223.189 283.425C226.006 279.899 228.809 276.352 231.619 272.776C233.136 270.816 234.696 268.87 236.094 266.826C236.115 266.742 235.981 266.65 235.918 266.721Z" fill="#263238"/>
<path d="M170.658 267.044C166.704 263.925 162.601 260.981 158.499 258.059C154.396 255.137 150.336 252.236 146.198 249.412C145.004 248.597 143.803 247.803 142.609 247.009C141.415 246.215 140.164 245.478 138.998 244.656C138.928 244.607 138.865 244.719 138.935 244.768C140.01 245.541 141.042 246.405 142.082 247.206C143.122 248.007 144.091 248.744 145.11 249.496C147.098 250.964 149.107 252.411 151.109 253.858C155.169 256.795 159.264 259.686 163.395 262.534C165.748 264.142 168.08 265.758 170.483 267.29C170.623 267.381 170.792 267.149 170.658 267.044Z" fill="#263238"/>
<path d="M196.088 234.238C192.435 231.211 188.515 228.485 184.68 225.682C180.844 222.879 176.953 219.992 173.061 217.175L161.477 208.809C157.733 206.097 154.01 203.351 150.055 200.955C147.892 199.649 145.679 198.434 143.396 197.338C141.184 196.21 138.881 195.27 136.512 194.528C136.496 194.521 136.478 194.521 136.462 194.528C136.446 194.534 136.434 194.547 136.427 194.563C136.421 194.579 136.421 194.597 136.427 194.612C136.434 194.628 136.447 194.641 136.462 194.647C138.415 195.736 140.459 196.656 142.426 197.703C144.393 198.75 146.297 199.81 148.187 200.976C152.113 203.358 155.815 206.062 159.538 208.739C167.266 214.295 174.993 219.88 182.769 225.359C187.124 228.429 191.388 231.681 195.912 234.491C196.053 234.569 196.221 234.351 196.088 234.238Z" fill="#263238"/>
<path d="M283.538 195.912C274.953 207.538 265.976 221.032 263.819 235.608C263.819 235.833 264.149 235.903 264.199 235.686C265.197 231.708 266.477 227.807 268.027 224.01C273.647 222.458 279.21 221.201 282.175 215.581C285.195 209.821 284.809 202.311 284.24 196.038C284.184 195.701 283.713 195.687 283.538 195.912Z" fill="#407BFF"/>
<path d="M268.083 223.898C271.94 215.244 276.892 206.554 283.186 199.438C283.228 199.389 283.292 199.438 283.249 199.508C279.133 204.573 276 210.094 272.944 215.714C275.789 212.827 278.901 210.242 281.592 207.179C281.648 207.123 281.732 207.179 281.683 207.27C279.007 210.474 276.063 213.965 272.6 216.339C271.663 218.058 270.727 219.784 269.79 221.517L270.493 221.151C270.535 221.151 270.57 221.193 270.528 221.215C270.268 221.348 270.001 221.488 269.727 221.608C269.277 222.423 268.828 223.245 268.364 224.06C268.252 224.242 268.027 224.088 268.083 223.898Z" fill="#263238"/>
<path d="M270.95 220.877C273.26 219.591 275.464 218.12 277.539 216.48C277.595 216.438 277.679 216.515 277.623 216.564C275.608 218.302 273.402 219.806 271.048 221.046C270.935 221.095 270.837 220.941 270.95 220.877Z" fill="#263238"/>
<path d="M262.829 233.445C262.829 233.62 263.145 233.613 263.145 233.445C263.187 228.64 263.145 223.814 263.215 218.995C264.452 216.508 267.086 215.138 268.926 213.15C270.244 211.695 271.392 210.095 272.347 208.381C274.563 204.282 275.916 199.773 276.323 195.132C276.829 189.997 274.883 173.046 272.713 173.636C271.596 173.945 267.957 182.34 266.995 185.115C265.432 189.684 264.289 194.387 263.581 199.164C261.824 210.467 261.972 222.072 262.829 233.445Z" fill="#407BFF"/>
<path d="M262.794 212.729C263.061 206.652 264.424 200.52 265.709 194.626C267.114 188.304 268.702 182.305 271.968 176.643C271.98 176.621 272 176.606 272.024 176.599C272.048 176.593 272.073 176.596 272.095 176.608C272.116 176.62 272.132 176.64 272.138 176.664C272.145 176.687 272.142 176.713 272.13 176.734C269.953 181.137 268.266 185.766 267.1 190.538C267.318 190.2 267.585 189.877 267.802 189.554C267.887 189.421 268.098 189.554 268.013 189.674C267.719 190.175 267.375 190.645 266.988 191.079C266.988 191.079 266.988 191.079 266.945 191.079C265.822 195.617 265.014 200.26 264.325 204.889C264.373 204.825 264.425 204.764 264.48 204.706C264.515 204.706 264.571 204.706 264.55 204.763C264.466 204.917 264.367 205.072 264.276 205.219C263.925 207.573 263.574 209.919 263.279 212.244C267.493 208.668 271.006 204.454 273.05 199.255C273.05 199.255 273.099 199.255 273.092 199.255C271.118 204.643 268.006 209.427 263.215 212.701C263.124 213.326 263.04 213.951 262.948 214.576C262.948 214.703 262.724 214.667 262.724 214.576C262.724 214.021 262.724 213.466 262.773 212.911C262.752 212.884 262.743 212.85 262.747 212.816C262.751 212.782 262.768 212.751 262.794 212.729Z" fill="#263238"/>
<path d="M264.767 203.927C267.964 199.157 270.949 194.521 273.288 189.245C273.294 189.231 273.305 189.22 273.319 189.214C273.333 189.208 273.348 189.208 273.362 189.214C273.376 189.219 273.387 189.23 273.393 189.244C273.399 189.258 273.399 189.273 273.394 189.287C271.42 194.528 268.659 199.824 264.922 204.039C264.852 204.138 264.697 204.025 264.767 203.927Z" fill="#263238"/>
<path d="M269.017 188.065C270.338 185.719 271.736 183.443 272.979 181.04C273.014 180.97 273.105 181.04 273.077 181.097C272.057 183.589 270.763 185.962 269.221 188.17C269.13 188.304 268.94 188.198 269.017 188.065Z" fill="#263238"/>
<path d="M259.597 219.557C259.528 222.736 259.147 225.9 258.459 229.005L258.607 230.038C259.582 226.604 260.15 223.067 260.3 219.501C260.328 219.451 260.342 219.396 260.342 219.339C260.342 219.282 260.328 219.227 260.3 219.177C260.435 214.391 260.079 209.603 259.239 204.889C257.75 196.066 254.505 187.594 248.344 181.005C248.293 180.956 248.231 180.92 248.164 180.901C248.096 180.881 248.025 180.878 247.956 180.891C247.887 180.905 247.822 180.936 247.767 180.98C247.713 181.024 247.669 181.081 247.641 181.146C245.155 187.468 246.026 194.991 248.14 201.293C249.289 204.703 250.931 207.926 253.015 210.86C255.172 213.804 257.862 216.311 259.597 219.557Z" fill="#407BFF"/>
<path d="M249.06 183.928C254.891 193.397 258.951 204.622 259.45 215.806C259.45 216.002 259.126 216.051 259.098 215.848C258.958 214.843 258.803 213.853 258.642 212.855C256.225 210.544 253.724 208.107 252.025 205.219C251.989 205.163 252.067 205.107 252.102 205.149C254.103 207.618 256.252 209.964 258.536 212.174C258.115 209.708 257.623 207.257 257.033 204.875L256.577 204.334C256.471 204.215 256.64 204.039 256.745 204.159L256.886 204.313C256.075 201.012 255.064 197.762 253.858 194.584C252.376 192.814 250.711 191.282 249.643 189.147C249.643 189.098 249.692 189.056 249.72 189.105C250.591 190.32 251.434 191.549 252.418 192.68C252.811 193.137 253.247 193.558 253.654 193.994C252.31 190.562 250.714 187.235 248.877 184.04C248.879 184.019 248.886 183.999 248.897 183.981C248.908 183.964 248.923 183.949 248.94 183.938C248.958 183.927 248.978 183.92 248.999 183.918C249.02 183.917 249.041 183.92 249.06 183.928Z" fill="#263238"/>
<path d="M250.268 195.61C252.151 198.145 254.301 200.569 256.057 203.189C256.106 203.266 255.994 203.344 255.93 203.281C253.682 201.173 251.772 198.286 250.142 195.68C250.093 195.603 250.212 195.532 250.268 195.61Z" fill="#263238"/>
<path d="M256.317 203.779L256.401 203.856C256.458 203.913 256.366 203.997 256.31 203.941L256.233 203.863C256.222 203.852 256.215 203.837 256.215 203.821C256.215 203.806 256.222 203.79 256.233 203.779C256.244 203.768 256.259 203.762 256.275 203.762C256.291 203.762 256.306 203.768 256.317 203.779Z" fill="#263238"/>
<path d="M239.928 202.128C240.62 207.415 242.749 212.41 246.082 216.571C247.458 218.202 249.159 219.527 251.076 220.463C253.24 221.531 255.502 222.767 257.736 223.645C258.799 226.351 259.59 229.156 260.096 232.019C260.166 231.78 260.237 231.52 260.314 231.281C258.874 218.946 250.894 208.409 240.694 201.644C240.614 201.592 240.521 201.564 240.425 201.563C240.33 201.563 240.236 201.59 240.156 201.641C240.075 201.692 240.011 201.765 239.971 201.851C239.93 201.938 239.916 202.034 239.928 202.128Z" fill="#407BFF"/>
<path d="M243.476 205.774C243.405 205.711 243.476 205.578 243.581 205.634C249.189 209.804 253.66 215.316 256.584 221.664C256.661 221.833 256.429 221.98 256.331 221.812C255.86 220.983 255.375 220.175 254.884 219.381C252.551 218.939 250.346 217.274 248.618 215.742C248.568 215.7 248.618 215.637 248.688 215.679C249.578 216.488 250.567 217.182 251.631 217.744C252.587 218.229 253.605 218.531 254.596 218.918C253.732 217.548 252.832 216.234 251.891 214.963C249.367 214.005 246.999 212.677 244.866 211.022C244.852 211.012 244.841 210.998 244.837 210.98C244.833 210.963 244.836 210.945 244.845 210.93C244.855 210.916 244.87 210.905 244.887 210.901C244.904 210.897 244.922 210.9 244.937 210.909C247.041 212.184 249.213 213.344 251.442 214.387C250.019 212.512 248.484 210.725 246.847 209.034C246.054 208.612 245.253 208.198 244.487 207.748C244.471 207.742 244.459 207.729 244.452 207.713C244.446 207.698 244.445 207.68 244.452 207.664C244.459 207.648 244.471 207.636 244.487 207.629C244.503 207.622 244.52 207.622 244.536 207.629C245.174 207.853 245.782 208.153 246.349 208.521C245.442 207.587 244.494 206.666 243.476 205.774Z" fill="#263238"/>
<path d="M243.693 210.038C243.833 210.119 243.965 210.213 244.087 210.319C244.122 210.319 244.087 210.397 244.038 210.382C243.897 210.314 243.761 210.236 243.63 210.151C243.56 210.094 243.623 209.982 243.693 210.038Z" fill="#263238"/>
<path d="M276.26 258.72H248.295L250.55 233.255L251.049 227.635H273.507L274.005 233.255L276.26 258.72Z" fill="#455A64"/>
<path d="M274.005 233.255H250.55L251.049 227.635H273.507L274.005 233.255Z" fill="#263238"/>
<path d="M274.841 223.708H249.707V229.265H274.841V223.708Z" fill="#455A64"/>
</svg>
