<svg width="29" height="26" viewBox="0 0 29 26" fill="none" xmlns="http://www.w3.org/2000/svg">
<path d="M13.2553 0.0673828C12.9009 0.0673828 12.5464 0.149181 12.2056 0.271879L2.17165 4.42997C1.50467 4.7031 0.973456 5.22992 0.694797 5.89461C0.416138 6.55931 0.412847 7.30745 0.685646 7.97457L7.44765 24.2661C7.64739 24.7602 7.98757 25.185 8.42613 25.4879C8.86468 25.7907 9.38239 25.9584 9.91524 25.9702C10.2697 25.9702 10.6378 25.9293 10.9923 25.7657L21.0398 21.6076C21.5248 21.4018 21.9405 21.0613 22.2377 20.6263C22.535 20.1914 22.7012 19.6803 22.7167 19.1537C22.7303 18.8129 22.6622 18.4175 22.5395 18.063L15.7229 1.77152C15.5302 1.27257 15.1918 0.843188 14.7517 0.539246C14.3116 0.235305 13.7902 0.0708834 13.2553 0.0673828ZM17.9997 0.0673828L22.7031 11.451V2.794C22.7031 2.07085 22.4158 1.37733 21.9045 0.86599C21.3931 0.35465 20.6996 0.0673828 19.9765 0.0673828M25.4433 2.16688V14.4775L28.7562 6.48856C28.892 6.15832 28.9613 5.80452 28.9601 5.44744C28.9588 5.09037 28.8871 4.73704 28.7491 4.40773C28.611 4.07842 28.4093 3.77961 28.1555 3.52842C27.9017 3.27723 27.6009 3.07862 27.2701 2.94396M13.2553 2.7531L20.0446 19.1401L9.96977 23.3118L3.1805 6.93845" fill="#1615F1"/>
</svg>
