<svg width="24" height="24" viewBox="0 0 24 24" fill="none" xmlns="http://www.w3.org/2000/svg">
<path d="M11.1901 2.25C10.9301 2.25 10.6701 2.31 10.4201 2.4L3.06013 5.45C2.57089 5.65035 2.18124 6.03678 1.97684 6.52433C1.77244 7.01189 1.77003 7.56066 1.97013 8.05L6.93013 20C7.07664 20.3625 7.32616 20.674 7.64785 20.8962C7.96953 21.1183 8.34928 21.2414 8.74013 21.25C9.00013 21.25 9.27013 21.22 9.53013 21.1L16.9001 18.05C17.2558 17.899 17.5608 17.6492 17.7788 17.3302C17.9968 17.0111 18.1187 16.6363 18.1301 16.25C18.1401 16 18.0901 15.71 18.0001 15.45L13.0001 3.5C12.8588 3.13402 12.6106 2.81906 12.2877 2.59612C11.9649 2.37317 11.5824 2.25257 11.1901 2.25ZM14.6701 2.25L18.1201 10.6V4.25C18.1201 3.71957 17.9094 3.21086 17.5343 2.83579C17.1593 2.46071 16.6506 2.25 16.1201 2.25M20.1301 3.79V12.82L22.5601 6.96C22.6598 6.71777 22.7106 6.45825 22.7097 6.19633C22.7088 5.93441 22.6562 5.67524 22.5549 5.43369C22.4537 5.19214 22.3057 4.97295 22.1196 4.78871C21.9334 4.60446 21.7127 4.45877 21.4701 4.36M11.1901 4.22L16.1701 16.24L8.78013 19.3L3.80013 7.29" fill="#1615F1"/>
</svg>
