<svg width="34" height="34" viewBox="0 0 34 34" fill="none" xmlns="http://www.w3.org/2000/svg">
<g clip-path="url(#clip0_297_3103)">
<path d="M10.0938 8.5C10.0938 8.07731 10.2617 7.67193 10.5605 7.37305C10.8594 7.07416 11.2648 6.90625 11.6875 6.90625H28.6875C29.1102 6.90625 29.5156 7.07416 29.8145 7.37305C30.1133 7.67193 30.2812 8.07731 30.2812 8.5C30.2812 8.92269 30.1133 9.32807 29.8145 9.62695C29.5156 9.92584 29.1102 10.0937 28.6875 10.0938H11.6875C11.2648 10.0937 10.8594 9.92584 10.5605 9.62695C10.2617 9.32807 10.0938 8.92269 10.0938 8.5ZM28.6875 15.4062H11.6875C11.2648 15.4063 10.8594 15.5742 10.5605 15.873C10.2617 16.1719 10.0938 16.5773 10.0938 17C10.0938 17.4227 10.2617 17.8281 10.5605 18.127C10.8594 18.4258 11.2648 18.5938 11.6875 18.5938H28.6875C29.1102 18.5938 29.5156 18.4258 29.8145 18.127C30.1133 17.8281 30.2812 17.4227 30.2812 17C30.2812 16.5773 30.1133 16.1719 29.8145 15.873C29.5156 15.5742 29.1102 15.4063 28.6875 15.4062ZM28.6875 23.9062H11.6875C11.2648 23.9062 10.8594 24.0742 10.5605 24.373C10.2617 24.6719 10.0938 25.0773 10.0938 25.5C10.0938 25.9227 10.2617 26.3281 10.5605 26.627C10.8594 26.9258 11.2648 27.0938 11.6875 27.0938H28.6875C29.1102 27.0938 29.5156 26.9258 29.8145 26.627C30.1133 26.3281 30.2812 25.9227 30.2812 25.5C30.2812 25.0773 30.1133 24.6719 29.8145 24.373C29.5156 24.0742 29.1102 23.9062 28.6875 23.9062ZM5.84375 14.875C5.42347 14.875 5.01262 14.9996 4.66316 15.2331C4.31371 15.4666 4.04134 15.7985 3.88051 16.1868C3.71967 16.5751 3.67759 17.0024 3.75958 17.4146C3.84158 17.8268 4.04396 18.2054 4.34115 18.5026C4.63834 18.7998 5.01697 19.0022 5.42918 19.0842C5.84139 19.1662 6.26866 19.1241 6.65695 18.9632C7.04525 18.8024 7.37713 18.53 7.61062 18.1806C7.84412 17.8311 7.96875 17.4203 7.96875 17C7.96875 16.4364 7.74487 15.8959 7.34635 15.4974C6.94784 15.0989 6.40734 14.875 5.84375 14.875ZM5.84375 6.375C5.42347 6.375 5.01262 6.49963 4.66316 6.73313C4.31371 6.96663 4.04134 7.2985 3.88051 7.6868C3.71967 8.07509 3.67759 8.50236 3.75958 8.91457C3.84158 9.32678 4.04396 9.70541 4.34115 10.0026C4.63834 10.2998 5.01697 10.5022 5.42918 10.5842C5.84139 10.6662 6.26866 10.6241 6.65695 10.4632C7.04525 10.3024 7.37713 10.03 7.61062 9.68059C7.84412 9.33113 7.96875 8.92029 7.96875 8.5C7.96875 7.93641 7.74487 7.39591 7.34635 6.9974C6.94784 6.59888 6.40734 6.375 5.84375 6.375ZM5.84375 23.375C5.42347 23.375 5.01262 23.4996 4.66316 23.7331C4.31371 23.9666 4.04134 24.2985 3.88051 24.6868C3.71967 25.0751 3.67759 25.5024 3.75958 25.9146C3.84158 26.3268 4.04396 26.7054 4.34115 27.0026C4.63834 27.2998 5.01697 27.5022 5.42918 27.5842C5.84139 27.6662 6.26866 27.6241 6.65695 27.4632C7.04525 27.3024 7.37713 27.03 7.61062 26.6806C7.84412 26.3311 7.96875 25.9203 7.96875 25.5C7.96875 24.9364 7.74487 24.3959 7.34635 23.9974C6.94784 23.5989 6.40734 23.375 5.84375 23.375Z" fill="#0029FF"/>
</g>
<defs>
<clipPath id="clip0_297_3103">
<rect width="34" height="34" fill="white"/>
</clipPath>
</defs>
</svg>
