<svg width="20" height="20" viewBox="0 0 20 20" fill="none" xmlns="http://www.w3.org/2000/svg">
<path d="M12 13C12.2833 13 12.5293 12.896 12.738 12.688C12.9467 12.48 13.0507 12.234 13.05 11.95C13.05 11.6667 12.946 11.421 12.738 11.213C12.53 11.005 12.284 10.9007 12 10.9C11.7167 10.9 11.471 11.0043 11.263 11.213C11.055 11.4217 10.9507 11.6673 10.95 11.95C10.95 12.2333 11.0543 12.4793 11.263 12.688C11.4717 12.8967 11.7173 13.0007 12 13ZM11.25 9.8H12.75C12.75 9.31667 12.8 8.96267 12.9 8.738C13 8.51333 13.2333 8.21733 13.6 7.85C14.1 7.35 14.4333 6.946 14.6 6.638C14.7667 6.33 14.85 5.96733 14.85 5.55C14.85 4.8 14.5873 4.18767 14.062 3.713C13.5367 3.23833 12.8493 3.00067 12 3C11.3167 3 10.721 3.19167 10.213 3.575C9.705 3.95833 9.35067 4.46667 9.15 5.1L10.5 5.65C10.65 5.23333 10.8543 4.921 11.113 4.713C11.3717 4.505 11.6673 4.40067 12 4.4C12.4 4.4 12.725 4.51267 12.975 4.738C13.225 4.96333 13.35 5.26733 13.35 5.65C13.35 5.88333 13.2833 6.10433 13.15 6.313C13.0167 6.52167 12.7833 6.784 12.45 7.1C11.9 7.58333 11.5627 7.96267 11.438 8.238C11.3133 8.51333 11.2507 9.034 11.25 9.8ZM4 16V0H20V16H4ZM0 20V4H2V18H16V20H0Z" fill="white"/>
</svg>
