<svg xmlns="http://www.w3.org/2000/svg" viewBox="0 0 500 500"><g id="freepik--Floor--inject-82"><path id="freepik--floor--inject-82" d="M87.88,248.17c-89.53,51.7-89.53,135.51,0,187.2s234.7,51.69,324.23,0,89.53-135.5,0-187.2S177.41,196.48,87.88,248.17Z" style="fill:#f5f5f5"></path></g><g id="freepik--Shadows--inject-82"><path id="freepik--Shadow--inject-82" d="M211.43,371.22c-22-12.69-22-33.27,0-46s57.65-12.7,79.63,0,22,33.27,0,46S233.42,383.92,211.43,371.22Z" style="fill:#e0e0e0"></path><path id="freepik--shadow--inject-82" d="M179.42,380.74c7.34,4.24,11,9.79,11,15.34s-3.67,11.1-11,15.34c-14.67,8.47-38.46,8.47-53.14,0-7.33-4.24-11-9.79-11-15.34s3.67-11.1,11-15.34C141,372.27,164.75,372.27,179.42,380.74Z" style="fill:#e0e0e0"></path><polygon id="freepik--shadow--inject-82" points="164.54 277.3 211.17 304.22 164.54 331.14 117.9 304.22 164.54 277.3" style="fill:#e0e0e0"></polygon><polygon id="freepik--shadow--inject-82" points="33.65 359.84 72.82 382.45 138.54 344.56 99.36 321.95 33.65 359.84" style="fill:#e0e0e0"></polygon><polygon id="freepik--shadow--inject-82" points="429.41 315.75 459.94 333.37 429.41 350.99 398.89 333.37 429.41 315.75" style="fill:#e0e0e0"></polygon><path id="freepik--shadow--inject-82" d="M361.26,417.34a4.58,4.58,0,0,1-4.43-3.66l-1-5.42a61,61,0,0,1-7-1.71s.06,0,0,0h-.12L339.21,411a5.27,5.27,0,0,1-2.23.47,5.54,5.54,0,0,1-2.71-.69l-9.51-5.49a3.77,3.77,0,0,1-.32-6.45l5.76-4.14a20.9,20.9,0,0,1-1.44-2.17l-12.13-.77a4.35,4.35,0,0,1-4.06-4.33v-7.07a4.34,4.34,0,0,1,4.07-4.33l12.12-.77a20.9,20.9,0,0,1,1.44-2.17l-5.76-4.15a3.76,3.76,0,0,1,.32-6.44l9.51-5.49a5.43,5.43,0,0,1,2.71-.69,5.27,5.27,0,0,1,2.23.47l9.54,4.42h.18a58.11,58.11,0,0,1,6.88-1.69l1-5.42a4.55,4.55,0,0,1,4.42-3.66h14a4.57,4.57,0,0,1,4.43,3.66l1,5.42a61.54,61.54,0,0,1,7,1.71s-.07,0,0,0h.12l9.55-4.42a5.27,5.27,0,0,1,2.23-.47,5.46,5.46,0,0,1,2.71.69l9.51,5.49a3.76,3.76,0,0,1,.32,6.44l-5.76,4.15a18.54,18.54,0,0,1,1.44,2.17l12.13.77a4.34,4.34,0,0,1,4.06,4.33v7.07a4.35,4.35,0,0,1-4.06,4.33l-12.13.77a20.38,20.38,0,0,1-1.44,2.17l5.76,4.14a3.77,3.77,0,0,1-.32,6.45l-9.51,5.49a5.54,5.54,0,0,1-2.71.69,5.27,5.27,0,0,1-2.23-.47l-9.54-4.42h-.18a60.48,60.48,0,0,1-6.87,1.69l-1,5.42a4.57,4.57,0,0,1-4.43,3.66Zm-7.54-34.71c-3.25,1.88-5.12,4.29-5.12,6.62s1.86,4.74,5.12,6.62a32.51,32.51,0,0,0,29.07,0c3.26-1.88,5.12-4.29,5.12-6.62s-1.86-4.74-5.12-6.62a32.51,32.51,0,0,0-29.07,0Z" style="fill:#e0e0e0"></path><path id="freepik--shadow--inject-82" d="M358.21,332l-3.86-4.06c-1,.05-1.94.08-2.9.08s-1.95,0-2.85-.08l-4.11,4.32a4.24,4.24,0,0,1-3.09,1.21,4.74,4.74,0,0,1-1.14-.13L330.81,331a3.82,3.82,0,0,1-2.58-2.05,3.32,3.32,0,0,1,0-2.87l1.6-3.15a28.34,28.34,0,0,1-2.55-1.57l-9,1.51a4.37,4.37,0,0,1-.64,0,4.57,4.57,0,0,1-3.6-1.88l-3.59-5a3.91,3.91,0,0,1-.69-2.17,3.36,3.36,0,0,1,2.37-3.22l7-2.22v-.66l-6.76-2.15a3.6,3.6,0,0,1-2.67-3.18v-.19a3.23,3.23,0,0,1,.61-1.89l3.91-5.45a4.18,4.18,0,0,1,3.43-1.61,4.87,4.87,0,0,1,.76.06l8.84,1.49c.65-.45,1.35-.89,2.09-1.31l.46-.26-1.47-2.92a3.83,3.83,0,0,1-.42-1.64v-.4l0-.14a3.46,3.46,0,0,1,2.65-2.93l9.77-2.33a3.49,3.49,0,0,1,.91-.11,4.83,4.83,0,0,1,3.39,1.48l3.87,4.07c1-.06,2-.08,3-.08s1.9,0,2.79.07l4.09-4.3a4.27,4.27,0,0,1,3.11-1.23,5.05,5.05,0,0,1,1.12.13l9.43,2.26a3.62,3.62,0,0,1,2.91,3.39,3.3,3.3,0,0,1-.35,1.52l-1.59,3.16.51.29c.73.41,1.41.85,2,1.26l0,0,9-1.51a4.21,4.21,0,0,1,.62-.05,4.62,4.62,0,0,1,3.61,1.88l3.55,4.94a3.72,3.72,0,0,1,.73,2.2v.46l-.06.18a3.38,3.38,0,0,1-2.3,2.6l-7,2.22c0,.22,0,.44,0,.66l6.8,2.15a3.9,3.9,0,0,1,2.12,1.6,3,3,0,0,1,.38,2.51,8,8,0,0,1-1.31,2.31L389.6,320l-1,1.34a4.17,4.17,0,0,1-3.41,1.61,4.69,4.69,0,0,1-.77-.07l-8.83-1.48a27.87,27.87,0,0,1-2.57,1.57l1.49,2.95a3.6,3.6,0,0,1,.08,3.18,3.42,3.42,0,0,1-2.35,1.89l-9.81,2.35a3.55,3.55,0,0,1-.86.1A4.84,4.84,0,0,1,358.21,332Zm6.2-25.33a14.71,14.71,0,0,0-7-3.5,25.67,25.67,0,0,0-5.93-.68c-6,0-11.49,2-13.61,5a3.28,3.28,0,0,0-.55,3.31l.09.24.25.42v0a7.39,7.39,0,0,0,2,2,9.53,9.53,0,0,0,1.15.75,18.09,18.09,0,0,0,4.77,1.82,25.73,25.73,0,0,0,5.93.68,22.4,22.4,0,0,0,10.72-2.5,10.6,10.6,0,0,0,1.19-.78,7.59,7.59,0,0,0,1.71-1.68,3.28,3.28,0,0,0,.3-3.83l-.18-.3a4.4,4.4,0,0,0-.26-.36c-.07-.1-.15-.19-.23-.29Z" style="fill:#e0e0e0"></path></g><g id="freepik--gears-2--inject-82"><path id="freepik--Gear--inject-82" d="M446.05,236l-2.29-3.53a24.68,24.68,0,0,1-6.72,1.25l-.88,4.1a1.59,1.59,0,0,1-1.63,1.28,30.18,30.18,0,0,1-9.81-2.1,1.59,1.59,0,0,1-1-1.83l.87-4.1a25,25,0,0,1-5.63-3.87l-3.52,2.29h0a1.6,1.6,0,0,1-2.06-.26,32.43,32.43,0,0,1-3.08-4,30.08,30.08,0,0,1-2.38-4.42,1.6,1.6,0,0,1,.6-2l3.53-2.28a24.77,24.77,0,0,1-1.24-6.73l-4.12-.87a1.61,1.61,0,0,1-1.27-1.64,30.2,30.2,0,0,1,2.09-9.8,1.6,1.6,0,0,1,1.83-1l4.11.87a24.33,24.33,0,0,1,3.88-5.63l-2.29-3.53a1.6,1.6,0,0,1,.25-2.06,30.68,30.68,0,0,1,8.41-5.45,1.57,1.57,0,0,1,2,.6L428,184.9a24.72,24.72,0,0,1,6.72-1.26l.88-4.1a1.61,1.61,0,0,1,1.64-1.28,30.68,30.68,0,0,1,9.8,2.08,1.64,1.64,0,0,1,1,1.84l-.88,4.11a25,25,0,0,1,5.63,3.87l3.52-2.28a1.59,1.59,0,0,1,2.06.25,29.49,29.49,0,0,1,3.08,4,30.24,30.24,0,0,1,2.39,4.45,1.6,1.6,0,0,1-.61,2l-3.53,2.29a24.7,24.7,0,0,1,1.24,6.71l4.12.88a1.63,1.63,0,0,1,1.28,1.64,30.42,30.42,0,0,1-2.1,9.8,1.61,1.61,0,0,1-1.83,1l-4.11-.88a24.56,24.56,0,0,1-3.88,5.63l2.3,3.53a1.6,1.6,0,0,1-.26,2.06,29.62,29.62,0,0,1-4,3.07,30.59,30.59,0,0,1-4.42,2.39l-.06,0A1.6,1.6,0,0,1,446.05,236Zm12-17.68,4.78.95a26.8,26.8,0,0,0,1.92-9.39l-4.7-1a.75.75,0,0,1-.6-.73,23.69,23.69,0,0,0-1.37-7.41.77.77,0,0,1,.3-.9l4.07-2.71a28.92,28.92,0,0,0-2.27-4.21,22.43,22.43,0,0,0-3-3.79l-4,2.61a.76.76,0,0,1-.94-.08,23.61,23.61,0,0,0-6.22-4.28.77.77,0,0,1-.42-.85l1-4.79a27.2,27.2,0,0,0-9.39-1.9l-1,4.68a.76.76,0,0,1-.73.61,23,23,0,0,0-7.41,1.38.76.76,0,0,1-.9-.3l-2.72-4.08a30,30,0,0,0-4.2,2.27,22.37,22.37,0,0,0-3.78,3l2.61,4a.76.76,0,0,1-.09.95,23.18,23.18,0,0,0-4.28,6.2.76.76,0,0,1-.85.43l-4.78-1a26.8,26.8,0,0,0-1.92,9.39l4.69,1a.78.78,0,0,1,.61.73,23.71,23.71,0,0,0,1.37,7.43.76.76,0,0,1-.3.89l-4.06,2.71a29,29,0,0,0,2.26,4.2,29.3,29.3,0,0,0,2.93,3.79.08.08,0,0,0,.1,0l4-2.61a.76.76,0,0,1,.94.09,23.3,23.3,0,0,0,6.22,4.26.77.77,0,0,1,.42.85l-1,4.79a27,27,0,0,0,9.39,1.92l1-4.69a.77.77,0,0,1,.73-.6,23.47,23.47,0,0,0,7.42-1.39.76.76,0,0,1,.89.31l2.72,4.07a29,29,0,0,0,4.2-2.27,22.85,22.85,0,0,0,3.79-3l-2.62-4a.75.75,0,0,1,.09-.94,23.43,23.43,0,0,0,4.28-6.21.76.76,0,0,1,.41-.38A.74.74,0,0,1,458,218.34Zm-19.31,4.81h0a14,14,0,0,1-11.31-2.41,14.78,14.78,0,0,1,5.65-26.51,13.92,13.92,0,0,1,11.31,2.4,14.93,14.93,0,0,1,5.87,15.11,14.72,14.72,0,0,1-9.17,10.68A16.45,16.45,0,0,1,438.71,223.15ZM423,206a13.39,13.39,0,0,0,5.3,13.57,12.34,12.34,0,0,0,10.05,2.14h0a13.25,13.25,0,0,0,5.07-23.81,12.43,12.43,0,0,0-10.05-2.14,14.65,14.65,0,0,0-2.13.66A13.21,13.21,0,0,0,423,206Z" style="fill:#f0f0f0"></path><path id="freepik--gear--inject-82" d="M360.62,171.89a10.69,10.69,0,0,0,4.2,10.81,10,10,0,0,0,8.09,1.72,11.7,11.7,0,0,0,1.68-.52,9.36,9.36,0,0,0,1.28-.6,10.52,10.52,0,0,0,5.28-7,10.66,10.66,0,0,0-4.2-10.81,10,10,0,0,0-8.09-1.72A10.67,10.67,0,0,0,360.62,171.89Zm1.27.27a9.26,9.26,0,0,1,4.64-6.17,10.62,10.62,0,0,1,1.13-.53,11.74,11.74,0,0,1,1.49-.46,8.7,8.7,0,0,1,7,1.5,9.27,9.27,0,0,1-3.54,16.66,8.68,8.68,0,0,1-7-1.5A9.38,9.38,0,0,1,361.89,172.16Zm-9.17,13.71a22.69,22.69,0,0,0,2.18,2.83,1.25,1.25,0,0,0,1.6.21l2.43-1.58A17.51,17.51,0,0,0,362.8,190l-.6,2.82a1.24,1.24,0,0,0,.75,1.42,21.22,21.22,0,0,0,7,1.49,1.24,1.24,0,0,0,1.27-1l.6-2.83a17.93,17.93,0,0,0,4.62-.86l1.57,2.43a1.26,1.26,0,0,0,1.5.49h0c.59-.26,1.18-.55,1.76-.86s.94-.55,1.4-.85a21,21,0,0,0,2.83-2.18,1.24,1.24,0,0,0,.2-1.59l-1.58-2.43a17.81,17.81,0,0,0,2.67-3.87l2.82.6A1.23,1.23,0,0,0,391,182a21.62,21.62,0,0,0,1.49-7,1.24,1.24,0,0,0-1-1.27l-2.83-.61a17.61,17.61,0,0,0-.85-4.61l2.42-1.58a1.23,1.23,0,0,0,.48-1.53,21.74,21.74,0,0,0-3.89-6,1.25,1.25,0,0,0-1.6-.2l-2.42,1.57a18.1,18.1,0,0,0-3.87-2.66l.6-2.82a1.26,1.26,0,0,0-.76-1.43,21.67,21.67,0,0,0-7-1.48,1.25,1.25,0,0,0-1.27,1l-.6,2.83a17.21,17.21,0,0,0-4.62.85l-1.58-2.42a1.22,1.22,0,0,0-1.54-.47,20.76,20.76,0,0,0-3.14,1.69,21.3,21.3,0,0,0-2.83,2.19,1.22,1.22,0,0,0-.2,1.59l1.57,2.43A17.51,17.51,0,0,0,355,166l-2.83-.6a1.25,1.25,0,0,0-1.42.76,21.57,21.57,0,0,0-1.49,7,1.27,1.27,0,0,0,1,1.27l2.83.6a17.62,17.62,0,0,0,.86,4.62l-2.43,1.57a1.26,1.26,0,0,0-.47,1.54A22.4,22.4,0,0,0,352.72,185.87Zm-.47-3.58,2.8-1.87a.64.64,0,0,0,.25-.76,16.46,16.46,0,0,1-1-5.22.66.66,0,0,0-.52-.62l-3.23-.68a18.93,18.93,0,0,1,1.32-6.43l3.29.65a.63.63,0,0,0,.72-.35,16.52,16.52,0,0,1,3-4.37.65.65,0,0,0,.08-.8l-1.81-2.78a15.94,15.94,0,0,1,2.6-2.06,20.67,20.67,0,0,1,2.88-1.56l1.87,2.81a.63.63,0,0,0,.76.25,16.46,16.46,0,0,1,5.21-1,.64.64,0,0,0,.62-.51l.69-3.23a19.21,19.21,0,0,1,6.43,1.31l-.66,3.3a.66.66,0,0,0,.36.72,16.49,16.49,0,0,1,4.37,3,.64.64,0,0,0,.76.1l0,0,2.78-1.8A15.54,15.54,0,0,1,388,163a20.14,20.14,0,0,1,1.56,2.89l-2.8,1.87a.65.65,0,0,0-.26.76,16.17,16.17,0,0,1,1,5.21.66.66,0,0,0,.52.62l3.24.69a19.17,19.17,0,0,1-1.32,6.43l-3.29-.66a.7.7,0,0,0-.38,0,.62.62,0,0,0-.34.32,16.7,16.7,0,0,1-3,4.37.65.65,0,0,0-.08.8l1.8,2.78a16.5,16.5,0,0,1-2.6,2.06,21,21,0,0,1-2.87,1.56l-1.87-2.81a.66.66,0,0,0-.76-.26,16.51,16.51,0,0,1-5.22,1,.64.64,0,0,0-.62.51l-.68,3.23a19.08,19.08,0,0,1-6.44-1.32l.66-3.3a.63.63,0,0,0-.36-.71,16.58,16.58,0,0,1-4.37-3,.63.63,0,0,0-.8-.08l-2.81,1.83a21.25,21.25,0,0,1-3.58-5.51Z" style="fill:#f0f0f0"></path><path id="freepik--gear--inject-82" d="M48.33,218.2a10.65,10.65,0,0,0,4.2,10.8,10,10,0,0,0,8.09,1.72,11.67,11.67,0,0,0,1.68-.51,13.62,13.62,0,0,0,1.28-.6,10.52,10.52,0,0,0,1.08-17.84,9.94,9.94,0,0,0-8.09-1.72A10.66,10.66,0,0,0,48.33,218.2Zm1.27.27a9.24,9.24,0,0,1,4.64-6.17,8.83,8.83,0,0,1,1.12-.53,10.45,10.45,0,0,1,1.5-.46,8.63,8.63,0,0,1,7,1.5,9.26,9.26,0,0,1-3.55,16.65,8.63,8.63,0,0,1-7-1.5A9.36,9.36,0,0,1,49.6,218.47Zm-9.17,13.7A22.56,22.56,0,0,0,42.61,235a1.25,1.25,0,0,0,1.6.2l2.42-1.57a18.16,18.16,0,0,0,3.88,2.66l-.61,2.82a1.25,1.25,0,0,0,.76,1.42,21.74,21.74,0,0,0,7,1.49,1.23,1.23,0,0,0,1.27-1l.6-2.82a17.93,17.93,0,0,0,4.63-.86l1.57,2.43a1.25,1.25,0,0,0,1.5.48h0c.59-.26,1.18-.54,1.75-.86s1-.54,1.41-.84a22.61,22.61,0,0,0,2.83-2.18,1.25,1.25,0,0,0,.2-1.6l-1.58-2.43a17.68,17.68,0,0,0,2.67-3.87l2.82.6a1.24,1.24,0,0,0,1.42-.75,21.68,21.68,0,0,0,1.49-7,1.27,1.27,0,0,0-1-1.28l-2.83-.6a17.69,17.69,0,0,0-.85-4.62L78,213.29a1.24,1.24,0,0,0,.47-1.54,20.83,20.83,0,0,0-1.69-3.16,23,23,0,0,0-2.19-2.83,1.25,1.25,0,0,0-1.6-.19l-2.42,1.57a17.57,17.57,0,0,0-3.88-2.66l.61-2.83a1.25,1.25,0,0,0-.76-1.42,21.4,21.4,0,0,0-7-1.48,1.24,1.24,0,0,0-1.27,1l-.6,2.82a17.62,17.62,0,0,0-4.62.86L51.49,201a1.24,1.24,0,0,0-1.54-.47,21.76,21.76,0,0,0-3.14,1.7A22,22,0,0,0,44,204.4a1.25,1.25,0,0,0-.19,1.6l1.57,2.43a17.89,17.89,0,0,0-2.67,3.87l-2.82-.6a1.24,1.24,0,0,0-1.42.75,21.62,21.62,0,0,0-1.49,7,1.25,1.25,0,0,0,1,1.27l2.83.6a18.11,18.11,0,0,0,.85,4.63l-2.42,1.57a1.25,1.25,0,0,0-.47,1.54A21.76,21.76,0,0,0,40.43,232.17ZM40,228.59l2.79-1.86A.65.65,0,0,0,43,226a16.51,16.51,0,0,1-1-5.22.64.64,0,0,0-.52-.62l-3.23-.68A19.21,19.21,0,0,1,39.61,213l3.3.66a.65.65,0,0,0,.72-.36,16.09,16.09,0,0,1,3-4.36.65.65,0,0,0,.08-.8l-1.81-2.78a15.42,15.42,0,0,1,2.6-2.06,19.67,19.67,0,0,1,2.88-1.56l1.87,2.8a.64.64,0,0,0,.76.26,16.19,16.19,0,0,1,5.21-1,.65.65,0,0,0,.62-.52l.69-3.22A19,19,0,0,1,66,201.4l-.66,3.3a.64.64,0,0,0,.36.72,16.52,16.52,0,0,1,4.37,3,.67.67,0,0,0,.76.1l0,0,2.77-1.8a16.09,16.09,0,0,1,2.07,2.6,20.58,20.58,0,0,1,1.56,2.88l-2.8,1.87a.65.65,0,0,0-.26.76,16.55,16.55,0,0,1,1,5.21.65.65,0,0,0,.51.62l3.24.69a19.21,19.21,0,0,1-1.31,6.44l-3.3-.66a.59.59,0,0,0-.37,0,.66.66,0,0,0-.35.33,16.35,16.35,0,0,1-3,4.36.64.64,0,0,0-.07.8l1.8,2.78a15.94,15.94,0,0,1-2.6,2.06A20,20,0,0,1,66.81,239l-1.87-2.8a.64.64,0,0,0-.76-.26,16.5,16.5,0,0,1-5.22,1,.65.65,0,0,0-.62.51l-.69,3.23a19.06,19.06,0,0,1-6.43-1.31l.66-3.3a.65.65,0,0,0-.36-.72,16.58,16.58,0,0,1-4.37-3,.65.65,0,0,0-.8-.07l-2.81,1.82a22,22,0,0,1-2-2.63A20.12,20.12,0,0,1,40,228.59Z" style="fill:#f0f0f0"></path><path id="freepik--gear--inject-82" d="M412.35,134.53a12,12,0,0,0,4.74,12.19,11.29,11.29,0,0,0,9.14,1.95,13.79,13.79,0,0,0,1.89-.59,12,12,0,0,0,7.4-8.62,12,12,0,0,0-4.74-12.19,11.26,11.26,0,0,0-9.13-2A12,12,0,0,0,412.35,134.53Zm1.43.3a10.57,10.57,0,0,1,6.51-7.56,10.89,10.89,0,0,1,1.68-.52,9.78,9.78,0,0,1,7.94,1.69,10.47,10.47,0,0,1-4,18.8,9.76,9.76,0,0,1-7.93-1.69A10.59,10.59,0,0,1,413.78,134.83ZM403.43,150.3a25,25,0,0,0,2.46,3.2,1.4,1.4,0,0,0,1.81.23l2.73-1.77a20.61,20.61,0,0,0,4.38,3l-.68,3.18a1.4,1.4,0,0,0,.85,1.61,24.2,24.2,0,0,0,7.87,1.68,1.41,1.41,0,0,0,1.44-1.12l.67-3.18a19.89,19.89,0,0,0,5.22-1L432,158.9a1.41,1.41,0,0,0,1.69.55h0c.68-.3,1.34-.62,2-1s1.06-.61,1.58-1a24.44,24.44,0,0,0,3.2-2.46,1.4,1.4,0,0,0,.22-1.8l-1.78-2.75a19.61,19.61,0,0,0,3-4.36l3.19.68a1.4,1.4,0,0,0,1.6-.86,24.36,24.36,0,0,0,1.69-7.87,1.43,1.43,0,0,0-1.12-1.44l-3.2-.68a20,20,0,0,0-1-5.21l2.74-1.78a1.39,1.39,0,0,0,.53-1.73,24.94,24.94,0,0,0-1.91-3.57,24.57,24.57,0,0,0-2.48-3.19,1.39,1.39,0,0,0-1.8-.22L437.45,122a20.29,20.29,0,0,0-4.38-3l.69-3.19a1.42,1.42,0,0,0-.86-1.6,24.24,24.24,0,0,0-7.87-1.67,1.41,1.41,0,0,0-1.44,1.11l-.67,3.19a20,20,0,0,0-5.22,1l-1.78-2.74a1.38,1.38,0,0,0-1.74-.53,24.88,24.88,0,0,0-3.55,1.91,25.41,25.41,0,0,0-3.2,2.47,1.4,1.4,0,0,0-.22,1.8l1.78,2.74a19.31,19.31,0,0,0-3,4.37l-3.19-.68a1.41,1.41,0,0,0-1.6.86,24.36,24.36,0,0,0-1.69,7.87,1.42,1.42,0,0,0,1.12,1.43l3.19.68a20.48,20.48,0,0,0,1,5.22L402,145a1.41,1.41,0,0,0-.53,1.74A24.49,24.49,0,0,0,403.43,150.3Zm-.53-4,3.15-2.11a.7.7,0,0,0,.29-.85,18.72,18.72,0,0,1-1.08-5.9.74.74,0,0,0-.59-.7l-3.65-.77a21.58,21.58,0,0,1,1.49-7.26l3.72.74a.73.73,0,0,0,.81-.4,18.53,18.53,0,0,1,3.4-4.93.73.73,0,0,0,.09-.9l-2-3.14a18.19,18.19,0,0,1,2.93-2.33,23.89,23.89,0,0,1,3.25-1.76l2.11,3.17a.74.74,0,0,0,.87.29,18,18,0,0,1,5.88-1.1.74.74,0,0,0,.7-.58l.77-3.64a21.66,21.66,0,0,1,7.27,1.47l-.75,3.73a.73.73,0,0,0,.4.81,19,19,0,0,1,4.94,3.39.71.71,0,0,0,.85.12l.05,0,3.13-2a17.39,17.39,0,0,1,2.34,2.93,22.2,22.2,0,0,1,1.75,3.26l-3.15,2.1a.72.72,0,0,0-.29.86,18.7,18.7,0,0,1,1.08,5.88.74.74,0,0,0,.58.71l3.66.77a21.64,21.64,0,0,1-1.49,7.27l-3.72-.75a.85.85,0,0,0-.42,0,.74.74,0,0,0-.39.37,18.8,18.8,0,0,1-3.4,4.93.72.72,0,0,0-.09.9l2,3.14a18.64,18.64,0,0,1-2.93,2.33,24.4,24.4,0,0,1-3.25,1.76l-2.11-3.17a.72.72,0,0,0-.86-.29,18.94,18.94,0,0,1-5.89,1.1.72.72,0,0,0-.7.57l-.77,3.65a21.25,21.25,0,0,1-7.27-1.49l.75-3.72a.73.73,0,0,0-.41-.81A18.58,18.58,0,0,1,411,150.5a.72.72,0,0,0-.9-.08l-3.18,2.06a25.84,25.84,0,0,1-2.29-3A23.32,23.32,0,0,1,402.9,146.26Z" style="fill:#f0f0f0"></path></g><g id="freepik--geometric-objects--inject-82"><g id="freepik--Pyramid--inject-82"><polygon points="203.01 302.98 164.54 325.2 164.53 235.69 203.01 302.98" style="fill:#fafafa"></polygon><polygon points="164.54 325.2 203.01 302.98 164.53 235.69 164.53 235.69 164.54 238.18 201.54 302.54 164.54 323.9 164.54 325.2" style="fill:#e0e0e0"></polygon><polygon points="126.06 302.98 164.54 325.2 164.53 235.69 126.06 302.98" style="fill:#e0e0e0"></polygon><polygon points="126.06 302.98 164.54 325.2 164.53 235.69 126.06 302.98" style="fill:#263238;opacity:0.1"></polygon></g><g id="freepik--Cuboid--inject-82"><polygon points="40.65 337.39 72.95 356.03 131.53 322.25 99.23 303.61 40.65 337.39" style="fill:#407BFF"></polygon><polygon points="40.65 337.39 72.95 356.03 131.53 322.25 99.23 303.61 40.65 337.39" style="fill:#fff;opacity:0.5"></polygon><polygon points="40.65 337.39 72.95 356.03 72.95 377.98 40.65 359.33 40.65 337.39" style="fill:#407BFF"></polygon><polygon points="131.53 322.25 131.53 344.2 72.95 377.98 72.95 356.03 131.53 322.25" style="fill:#407BFF"></polygon><polygon points="131.53 322.25 131.53 344.2 72.95 377.98 72.95 356.03 131.53 322.25" style="fill:#fff;opacity:0.30000000000000004"></polygon></g><g id="freepik--Cylinder--inject-82"><path d="M119.72,375.34c0-4.9,3.24-9.79,9.71-13.53,12.93-7.47,33.91-7.47,46.85,0,6.47,3.74,9.7,8.63,9.7,13.53v17.25c0,4.89-3.23,9.79-9.7,13.52-12.94,7.47-33.92,7.47-46.85,0-6.48-3.73-9.71-8.63-9.71-13.52Z" style="fill:#263238"></path><path d="M176.28,361.81c6.47,3.74,9.7,8.63,9.7,13.53s-3.23,9.79-9.7,13.52c-12.94,7.47-33.92,7.47-46.86,0-6.46-3.73-9.7-8.63-9.7-13.52s3.24-9.79,9.71-13.53C142.36,354.34,163.34,354.34,176.28,361.81Z" style="fill:#455a64"></path></g><g id="freepik--Cube--inject-82"><polygon points="429.41 292.39 453.2 306.12 429.41 319.85 405.63 306.12 429.41 292.39" style="fill:#407BFF"></polygon><polygon points="429.41 292.39 453.2 306.12 429.41 319.85 405.63 306.12 429.41 292.39" style="fill:#fff;opacity:0.2"></polygon><polygon points="405.63 306.12 405.63 333.58 429.41 347.31 429.41 319.85 405.63 306.12" style="fill:#407BFF"></polygon><polygon points="453.2 306.12 453.2 333.58 429.41 347.31 429.41 319.85 453.2 306.12" style="fill:#407BFF"></polygon><polygon points="453.2 306.12 453.2 333.58 429.41 347.31 429.41 319.85 453.2 306.12" style="fill:#263238;opacity:0.2"></polygon></g></g><g id="freepik--gears-1--inject-82"><g id="freepik--gear--inject-82"><path d="M315.62,374.23l0,13.2a1.28,1.28,0,0,0,1.19,1.26l9,.57V402h0a.79.79,0,0,0,.44.64l9.52,5.5a2.46,2.46,0,0,0,1.2.24v0a2.13,2.13,0,0,0,.9-.17l9.65-4.47a3.53,3.53,0,0,1,2.2-.13,58.41,58.41,0,0,0,7.49,1.78,1.81,1.81,0,0,1,1.39,1.35l1.21,6.36a1.41,1.41,0,0,0,.52.83h0a1.43,1.43,0,0,0,.89.34h14a1.35,1.35,0,0,0,.8-.31c.07,0,.11-.1.18-.16a1.54,1.54,0,0,0,.19-.17v-.15c.08-.13.21-.23.24-.38l1.2-6.36a1.82,1.82,0,0,1,1.4-1.35,57.86,57.86,0,0,0,7.48-1.78,3.56,3.56,0,0,1,2.21.13l9.64,4.47a2.21,2.21,0,0,0,.59.1v.06a1.82,1.82,0,0,0,.33,0h.26a2.23,2.23,0,0,0,.91-.24h0l9.51-5.5a.88.88,0,0,0,.34-.32l0,0a.45.45,0,0,0,.07-.25l0,0h0v-5.41h0v-7.31h0l8.85-.56h.17c.09,0,.14-.09.23-.11a1.25,1.25,0,0,0,.6-.29,1.3,1.3,0,0,0,.19-.45c.05-.13.16-.24.16-.4h0v-7.08h0v-5h0v-7.07a1.28,1.28,0,0,0-1.19-1.26l-9-.57v-12.7h0a.74.74,0,0,0-.44-.67l-9.51-5.5a2.53,2.53,0,0,0-2.1-.09L389,352a3.6,3.6,0,0,1-2.2.13,58.41,58.41,0,0,0-7.49-1.78,1.83,1.83,0,0,1-1.4-1.36l-1.2-6.35a1.48,1.48,0,0,0-1.41-1.17h-14a1.5,1.5,0,0,0-1.41,1.17l-1.2,6.35a1.83,1.83,0,0,1-1.4,1.36,56.26,56.26,0,0,0-7.48,1.78,3.63,3.63,0,0,1-2.21-.13l-9.64-4.47a2.59,2.59,0,0,0-2.11.09l-9.51,5.5a.75.75,0,0,0-.44.69h0v12.68l-9,.57a1.28,1.28,0,0,0-1.19,1.26V374A2,2,0,0,0,315.62,374.23Zm36.56,4.49c8.88-5.13,23.27-5.13,32.15,0,.67.38,1.29.78,1.86,1.18a18.73,18.73,0,0,1-1.86,1.23c-8.88,5.12-23.27,5.12-32.15,0a22.16,22.16,0,0,1-1.86-1.22C350.89,379.5,351.51,379.11,352.18,378.72Z" style="fill:#37474f"></path><path d="M315.61,374.23l0,13.2a1.28,1.28,0,0,0,1.19,1.26l9,.57V402a.79.79,0,0,0,.44.64l9.52,5.49a2.24,2.24,0,0,0,1.2.25v0a2.13,2.13,0,0,0,.9-.17l9.65-4.47a3.39,3.39,0,0,1,.9-.22h0a3.42,3.42,0,0,1,1.3.09,58.41,58.41,0,0,0,7.49,1.78,1.75,1.75,0,0,1,.59.24v.07a1.7,1.7,0,0,1,.8,1l1.21,6.36a1.47,1.47,0,0,0,.52.83h0a1.4,1.4,0,0,0,.89.33h14l.26,0a1.54,1.54,0,0,0,.91-.6v-.15c.08-.13.21-.23.24-.38l1.2-6.36a1.74,1.74,0,0,1,.57-.91v0a1.73,1.73,0,0,1,.83-.42,57.86,57.86,0,0,0,7.48-1.78,3.61,3.61,0,0,1,1.48-.07v0a3.13,3.13,0,0,1,.73.16l9.64,4.47a2.08,2.08,0,0,0,.59.1v.06h0a2.59,2.59,0,0,0,1.51-.25h0l9.51-5.49a1.27,1.27,0,0,0,.21-.15.9.9,0,0,0,.15-.19.71.71,0,0,0,.09-.28h0V389.27l1.65-.11,7.21-.46h.16a1.29,1.29,0,0,0,1.19-1.24V375.38a1.28,1.28,0,0,1-1.19,1.26l-12.67.81a2.34,2.34,0,0,0-1.72,1.13,18.7,18.7,0,0,1-2.69,3.74,1,1,0,0,0,.14,1.55l7.54,5.42a.71.71,0,0,1-.07,1.29l-9.51,5.5a2.63,2.63,0,0,1-2.11.09L389,391.7a3.48,3.48,0,0,0-2.21-.13,57.86,57.86,0,0,1-7.48,1.78,1.84,1.84,0,0,0-1.4,1.35l-1.2,6.36a1.51,1.51,0,0,1-1.41,1.17h-14a1.49,1.49,0,0,1-1.41-1.17l-1.21-6.36a1.81,1.81,0,0,0-1.38-1.35,56.57,56.57,0,0,1-7.5-1.79,3.53,3.53,0,0,0-2.2.14l-9.65,4.47a2.61,2.61,0,0,1-2.1-.09l-9.52-5.5a.71.71,0,0,1-.06-1.28l7.54-5.43a1,1,0,0,0,.14-1.55,19.1,19.1,0,0,1-2.69-3.74,2.34,2.34,0,0,0-1.71-1.13l-12.68-.8a1.28,1.28,0,0,1-1.18-1.27V374A1.09,1.09,0,0,0,315.61,374.23Z" style="fill:#263238"></path><path d="M325.85,353.81v12.67l3.66-.23a2.33,2.33,0,0,0,1.71-1.14,19,19,0,0,1,2.69-3.73,1,1,0,0,0-.14-1.55l-7.54-5.43a.81.81,0,0,1-.37-.59Z" style="fill:#263238"></path><path d="M402.6,361.38a18.64,18.64,0,0,1,2.69,3.73,2.33,2.33,0,0,0,1.72,1.14l3.64.23v-12.7a.79.79,0,0,1-.38.62l-7.54,5.43A1,1,0,0,0,402.6,361.38Z" style="fill:#263238"></path><path d="M398.6,347.53,389,352a3.6,3.6,0,0,1-2.2.13,58.41,58.41,0,0,0-7.49-1.78,1.83,1.83,0,0,1-1.4-1.36l-1.2-6.35a1.48,1.48,0,0,0-1.41-1.17h-14a1.5,1.5,0,0,0-1.41,1.17l-1.2,6.35a1.83,1.83,0,0,1-1.4,1.36,56.26,56.26,0,0,0-7.48,1.78,3.63,3.63,0,0,1-2.21-.13l-9.64-4.47a2.59,2.59,0,0,0-2.11.09l-9.51,5.5a.7.7,0,0,0-.07,1.28l7.54,5.43a1,1,0,0,1,.14,1.55,18.64,18.64,0,0,0-2.69,3.73,2.33,2.33,0,0,1-1.71,1.14l-12.68.8a1.28,1.28,0,0,0-1.19,1.26v7.07a1.28,1.28,0,0,0,1.19,1.27l12.68.8a2.33,2.33,0,0,1,1.71,1.14,18.64,18.64,0,0,0,2.69,3.73,1,1,0,0,1-.14,1.55l-7.54,5.42a.71.71,0,0,0,.07,1.29l9.51,5.49a2.59,2.59,0,0,0,2.11.1l9.64-4.47a3.48,3.48,0,0,1,2.21-.13,57.86,57.86,0,0,0,7.48,1.78,1.84,1.84,0,0,1,1.4,1.35l1.2,6.36a1.49,1.49,0,0,0,1.41,1.16h14a1.48,1.48,0,0,0,1.41-1.16l1.2-6.36a1.84,1.84,0,0,1,1.4-1.35,58.41,58.41,0,0,0,7.49-1.78,3.46,3.46,0,0,1,2.2.13l9.65,4.47a2.57,2.57,0,0,0,2.1-.1l9.51-5.49a.71.71,0,0,0,.07-1.29l-7.54-5.42a1,1,0,0,1-.14-1.55,18.64,18.64,0,0,0,2.69-3.73,2.33,2.33,0,0,1,1.71-1.14l12.68-.8a1.28,1.28,0,0,0,1.19-1.27v-7.07a1.28,1.28,0,0,0-1.19-1.26l-12.68-.8a2.33,2.33,0,0,1-1.71-1.14,18.64,18.64,0,0,0-2.69-3.73,1,1,0,0,1,.14-1.55l7.54-5.43a.7.7,0,0,0-.07-1.28l-9.51-5.5A2.57,2.57,0,0,0,398.6,347.53Zm-14.27,15c8.87,5.12,8.87,13.43,0,18.56s-23.27,5.12-32.15,0-8.87-13.44,0-18.56S375.45,357.44,384.33,362.57Z" style="fill:#455a64"></path><path d="M410.66,389.93a.81.81,0,0,0-.38-.64l-3.8-2.73v-9a1.69,1.69,0,0,1,.53-.12l12.67-.81a1.28,1.28,0,0,0,1.19-1.26v12.07a1.29,1.29,0,0,1-1.19,1.24h-.16l-7.21.46-1.65.11Z" style="fill:#37474f"></path><path d="M388.23,391.51a2.53,2.53,0,0,1,.72.19l9.64,4.47a2.42,2.42,0,0,0,1.24.15v12.05a2.83,2.83,0,0,1-.65,0h0v-.06a2.08,2.08,0,0,1-.59-.1L389,403.74a3,3,0,0,0-.72-.16Z" style="fill:#37474f"></path><path d="M376.48,401.51a1.77,1.77,0,0,0,.18-.45l1.2-6.36a1.66,1.66,0,0,1,.19-.48v12a1.45,1.45,0,0,0-.19.47l-1.2,6.36a.83.83,0,0,1-.18.3Z" style="fill:#37474f"></path><path d="M358.46,394.22a1.48,1.48,0,0,1,.18.48l1.21,6.36a1.46,1.46,0,0,0,.18.45v12a1.46,1.46,0,0,1-.18-.45l-1.21-6.36a1.23,1.23,0,0,0-.18-.43Z" style="opacity:0.15"></path><path d="M336.68,396.32a2.37,2.37,0,0,0,1.23-.15l9.65-4.47a2.53,2.53,0,0,1,.72-.19v12a2.91,2.91,0,0,0-.72.19l-9.65,4.47a2.13,2.13,0,0,1-.9.17v0h-.33Z" style="opacity:0.15"></path><path d="M316.83,376.65l12.68.8a1.63,1.63,0,0,1,.52.12v9l-3.8,2.74a.81.81,0,0,0-.38.63v-.67l-9-.57a1.28,1.28,0,0,1-1.19-1.26l0-13.2a1.09,1.09,0,0,1,0-.26v1.41A1.28,1.28,0,0,0,316.83,376.65Z" style="opacity:0.15"></path></g><g id="freepik--gear--inject-82"><path d="M390.34,303.76v0h0a.57.57,0,0,0-.07-.22h0c0-4,0-10.93,0-11.37v0a.91.91,0,0,0-.2-.54l-3.55-4.95a1.69,1.69,0,0,0-1.46-.69l-9.28,1.56A2.9,2.9,0,0,1,374,287c-.57-.4-1.19-.79-1.84-1.16v-7.38h0c0-.3-.28-.58-.74-.69L362,275.52a1.7,1.7,0,0,0-1.51.29L356,280.55a2.17,2.17,0,0,1-1.48.46,48.37,48.37,0,0,0-6.14,0,2.44,2.44,0,0,1-1.65-.72l-4-4.24a1.82,1.82,0,0,0-1.57-.58l-9.79,2.33a.64.64,0,0,0-.51.65v0c0,.41,0,3.91,0,7.32a24.62,24.62,0,0,0-2.18,1.39,2.54,2.54,0,0,1-1.62.28L318,286a1.59,1.59,0,0,0-1.42.42l-3.91,5.44a.43.43,0,0,0-.08.24v0c0,.82,0,14,0,14.13a.4.4,0,0,0,.08.22c0,4.07,0,7,0,7.15a1,1,0,0,0,.2.58l3.55,4.95a1.7,1.7,0,0,0,1.46.69l9.28-1.57a3,3,0,0,1,1.78.51c.58.41,1.19.79,1.84,1.17v7.35c0,.3.28.59.74.71l9.42,2.25a1.74,1.74,0,0,0,1.53-.29l4.5-4.74a2.12,2.12,0,0,1,1.48-.46,50.3,50.3,0,0,0,6.14,0,2.46,2.46,0,0,1,1.65.71l4,4.25a1.84,1.84,0,0,0,1.57.58l9.8-2.34a.62.62,0,0,0,.49-.54c0-.16,0-7.46,0-7.46a24.56,24.56,0,0,0,2.18-1.38,2.42,2.42,0,0,1,1.62-.28l9,1.52a1.57,1.57,0,0,0,1.42-.43l3.91-5.44a.46.46,0,0,0,.08-.24c0-.26,0-9.43,0-9.93Zm-52.43.28c.43-.3.9-.59,1.4-.89,6.73-3.88,17.64-3.88,24.37,0,.49.29.95.58,1.36.88a14.33,14.33,0,0,1-1.47,1c-4.79,2.72-12.1,3.68-18.69,2.11a21.19,21.19,0,0,1-5.53-2.12A13.75,13.75,0,0,1,337.91,304Z" style="fill:#37474f"></path><path d="M333,284.7c-.75.35-1.48.72-2.17,1.11,0-3.41,0-6.91,0-7.32a.8.8,0,0,0,.1.38l2.35,4.65A.85.85,0,0,1,333,284.7Z" style="fill:#263238"></path><path d="M322.17,296.33a9.58,9.58,0,0,0,0,3.07,1,1,0,0,1-.62,1.08l-8.48,2.68a.55.55,0,0,0-.39.54v2.75a.37.37,0,0,1-.07-.2c0-4.82,0-12.86,0-13.56v-.59c0,.25.27.5.68.63l8,2.54A1.11,1.11,0,0,1,322.17,296.33Z" style="opacity:0.15"></path><path d="M327.47,308.31v9.94a1.28,1.28,0,0,0-.34,0l-9.28,1.55a1.1,1.1,0,0,1-.47,0v-9.93a1.18,1.18,0,0,0,.49,0l9.28-1.56A1.13,1.13,0,0,1,327.47,308.31Z" style="opacity:0.15"></path><path d="M330.75,319.92c-.64-.37-1.26-.75-1.84-1.16a3.37,3.37,0,0,0-1.44-.51v-9.94a3.14,3.14,0,0,1,1.45.52,28.69,28.69,0,0,0,3.76,2.16c.55.27.86.75.68,1.12l-2.55,5.05a.54.54,0,0,0-.05.21C330.76,317.66,330.75,319.92,330.75,319.92Z" style="fill:#263238"></path><path d="M347.5,315v9.94a1.55,1.55,0,0,0-.57.32L342.42,330a1.35,1.35,0,0,1-.82.33v-9.94a1.3,1.3,0,0,0,.84-.32l4.52-4.75A1.34,1.34,0,0,1,347.5,315Z" style="opacity:0.15"></path><path d="M355.14,314.89v9.94a2.23,2.23,0,0,0-.59-.09,52.39,52.39,0,0,1-6.14,0,2.4,2.4,0,0,0-.91.14V315a2.48,2.48,0,0,1,.93-.14,48.21,48.21,0,0,0,6.13,0A1.75,1.75,0,0,1,355.14,314.89Z" style="fill:#263238"></path><path d="M361.14,320.3v9.93a2.05,2.05,0,0,1-.9-.53l-4-4.25a2.5,2.5,0,0,0-1.06-.62v-9.94a2.6,2.6,0,0,1,1.08.63l4,4.24A2.06,2.06,0,0,0,361.14,320.3Z" style="opacity:0.15"></path><path d="M372.12,317.48v2.46h0v3.91c0,1.76,0,3.48,0,3.55a.62.62,0,0,1-.5.54l-9.79,2.34a1.31,1.31,0,0,1-.67,0V320.3a1.52,1.52,0,0,0,.69.05l9.79-2.35A.59.59,0,0,0,372.12,317.48Z" style="fill:#37474f"></path><path d="M375.28,308.32v9.94a2.14,2.14,0,0,0-1,.3,22.47,22.47,0,0,1-2.18,1.38s0-2.27,0-2.58a.85.85,0,0,0-.1-.4l-2.35-4.66a.84.84,0,0,1,.29-1.18,27.59,27.59,0,0,0,4.35-2.49A2.05,2.05,0,0,1,375.28,308.32Z" style="opacity:0.15"></path><path d="M390.34,303.76c0,.49,0,9.66,0,9.93a.69.69,0,0,1-.09.25l-3.91,5.43a1.14,1.14,0,0,1-.66.39v-9.93a1.23,1.23,0,0,0,.69-.39l3.9-5.44A.43.43,0,0,0,390.34,303.76Z" style="fill:#37474f"></path><path d="M330.81,278.46v0a.94.94,0,0,0,.1.38l2.35,4.65a.84.84,0,0,1-.3,1.18c-.74.35-1.47.72-2.16,1.11a24.62,24.62,0,0,0-2.18,1.39,2.54,2.54,0,0,1-1.62.28L318,286a1.59,1.59,0,0,0-1.42.42l-3.91,5.44a.43.43,0,0,0-.08.24v0c0,.25.27.5.69.63l8,2.54a1.09,1.09,0,0,1,.87,1.06,9.88,9.88,0,0,0,0,3.07,1,1,0,0,1-.63,1.08l-8.48,2.68a.55.55,0,0,0-.39.54,1,1,0,0,0,.2.55l3.55,4.94a1.67,1.67,0,0,0,1.47.69l9.27-1.56a2.84,2.84,0,0,1,1.77.51,27.57,27.57,0,0,0,3.77,2.16c.55.27.85.75.67,1.11l-2.55,5.06c-.18.36.13.75.69.89l9.42,2.25a1.74,1.74,0,0,0,1.52-.28l4.51-4.75a2.15,2.15,0,0,1,1.48-.46,50.15,50.15,0,0,0,6.13,0,2.42,2.42,0,0,1,1.66.71l4,4.25a1.91,1.91,0,0,0,1.57.58l9.8-2.35a.68.68,0,0,0,.4-1l-2.35-4.66a.84.84,0,0,1,.29-1.18,26.44,26.44,0,0,0,4.35-2.5,2.52,2.52,0,0,1,1.61-.28l9,1.51a1.59,1.59,0,0,0,1.43-.41l3.89-5.44a.38.38,0,0,0,.09-.24h0v0a.57.57,0,0,0-.07-.22h0a1.07,1.07,0,0,0-.61-.42l-8-2.54a1.11,1.11,0,0,1-.88-1.06,9.52,9.52,0,0,0,0-3.06,1,1,0,0,1,.63-1.08l8.48-2.69a.54.54,0,0,0,.39-.52v0a.91.91,0,0,0-.2-.54l-3.55-4.95a1.69,1.69,0,0,0-1.46-.69l-9.28,1.56A2.9,2.9,0,0,1,374,287c-.57-.4-1.19-.79-1.84-1.16s-1.25-.68-1.91-1-.87-.75-.68-1.11l2.55-5.06a.49.49,0,0,0,.05-.2c0-.3-.28-.58-.74-.69L362,275.52a1.7,1.7,0,0,0-1.51.29L356,280.55a2.17,2.17,0,0,1-1.48.46,48.37,48.37,0,0,0-6.14,0,2.44,2.44,0,0,1-1.65-.72l-4-4.25a1.84,1.84,0,0,0-1.57-.57l-9.79,2.33A.64.64,0,0,0,330.81,278.46ZM366.43,293l.24.24.17.19a4.87,4.87,0,0,1,.35.42q.19.25.36.51c.08.11.14.22.21.33l.09.16a6.07,6.07,0,0,1-.47,6.86A10.31,10.31,0,0,1,365,304a14.33,14.33,0,0,1-1.47,1c-4.79,2.72-12.1,3.68-18.69,2.11a21.19,21.19,0,0,1-5.53-2.12,13.75,13.75,0,0,1-1.44-.94,9.72,9.72,0,0,1-2.94-3.26s0,0,0,0a1.74,1.74,0,0,1-.1-.19,1585863193093.26,1585863193093.26,0,0,1-.18-.42,6.08,6.08,0,0,1,.88-6c3.64-5.07,13.71-7.48,22.5-5.38A17.3,17.3,0,0,1,366.43,293Z" style="fill:#455a64"></path></g></g><g id="freepik--robot-arm--inject-82"><g id="freepik--robot-arm--inject-82"><path d="M327.34,72.79h0a8.1,8.1,0,0,0-1.8-1.4c-2.18-1.25-11.55-6.68-12.18-7-5.41-3.08-13,1.48-18.33,11.45L221.77,213.21c-9.41,17.63-10.13,40-1.59,48.65h0a11.92,11.92,0,0,0,2.46,1.94c2.14,1.27,11.37,6.58,12.26,7.09,8.62,5,21-3.65,28.5-20.7l64.28-146.57C332.88,91.75,332.74,78.27,327.34,72.79Z" style="fill:#407BFF"></path><path d="M327.34,72.79h0a8.1,8.1,0,0,0-1.8-1.4c-2.18-1.25-11.55-6.68-12.18-7-5.41-3.08-13,1.48-18.33,11.45L221.77,213.21c-9.41,17.63-10.13,40-1.59,48.65h0a11.92,11.92,0,0,0,2.46,1.94c2.14,1.27,11.37,6.58,12.26,7.09,8.62,5,21-3.65,28.5-20.7l64.28-146.57C332.88,91.75,332.74,78.27,327.34,72.79Z" style="fill:#fff;opacity:0.30000000000000004"></path><path d="M327.68,103.62,263.4,250.19c-8.25,18.81-22.5,27.4-31,18.71h0c-8.54-8.69-7.82-31,1.58-48.65L307.21,82.83c5.94-11.14,14.74-15.53,20.13-10h0C332.74,78.27,332.88,91.75,327.68,103.62Z" style="fill:#407BFF;opacity:0.6000000000000001"></path><path d="M243.75,256.67c2.18,1,5,.54,7.9-1.52,5.82-4.12,9.86-13.2,9-20.28-.41-3.54-2-5.92-4.14-6.89-1.33-.59-3.33-1.45-4.65-2-2.18-1-5-.54-7.89,1.52-5.82,4.12-9.87,13.2-9,20.28.41,3.54,2,5.91,4.15,6.88Z" style="fill:#263238"></path><path d="M260.68,234.87c-.41-3.54-2-5.92-4.14-6.89s-5-.54-7.9,1.52c-5.82,4.12-9.86,13.21-9,20.29.42,3.54,2,5.91,4.15,6.88s5,.54,7.9-1.52C257.47,251,261.51,242,260.68,234.87Z" style="fill:#455a64"></path><path d="M315.8,100.79c1.2.54,2.74.3,4.34-.83a13.19,13.19,0,0,0,5-11.15c-.23-2-1.08-3.26-2.28-3.79l-2.56-1.13c-1.2-.53-2.74-.29-4.34.84a13.19,13.19,0,0,0-5,11.15,4.45,4.45,0,0,0,2.28,3.79Z" style="fill:#263238"></path><path d="M325.11,88.81c-.23-2-1.09-3.26-2.28-3.79s-2.74-.3-4.34.84a13.15,13.15,0,0,0-5,11.15c.23,1.95,1.08,3.25,2.28,3.78s2.74.3,4.34-.83A13.19,13.19,0,0,0,325.11,88.81Z" style="fill:#455a64"></path><path d="M326.22,71.66a10.39,10.39,0,0,0-7.57-.92L205.45,94.82c-6.32,1.34-13.17,8.92-15.59,17.24-1.81,6.24-.65,11.25,2.6,13.16,1.08.64,6.79,3.93,8.22,4.74a6.66,6.66,0,0,0,3.82.75l108.78-8.85c9.7-.79,21.09-12.62,25-25.93h0c2.73-9.39.93-16.81-3.91-19.61C333,75.54,327.59,72.46,326.22,71.66Z" style="fill:#407BFF"></path><path d="M326.22,71.66a10.39,10.39,0,0,0-7.57-.92L205.45,94.82c-6.32,1.34-13.17,8.92-15.59,17.24-1.81,6.24-.65,11.25,2.6,13.16,1.08.64,6.79,3.93,8.22,4.74a6.66,6.66,0,0,0,3.82.75l108.78-8.85c9.7-.79,21.09-12.62,25-25.93h0c2.73-9.39.93-16.81-3.91-19.61C333,75.54,327.59,72.46,326.22,71.66Z" style="fill:#fff;opacity:0.5"></path><path d="M204.5,130.71l108.78-8.85c9.7-.79,21.09-12.62,25-25.93h0c3.87-13.3-1.36-22.66-11.45-20.51L213.57,99.5c-6.31,1.34-13.17,8.92-15.58,17.24h0C195.57,125.06,198.43,131.2,204.5,130.71Z" style="fill:#fff;opacity:0.30000000000000004"></path><path d="M298.3,346.77h0V333H288c-1.06-.72-2.21-1.43-3.44-2.14-18.38-10.62-48.18-10.62-66.57,0-1.22.71-2.37,1.42-3.43,2.14H204.18v13.79h0c-.18,5.58,4.4,11.17,13.77,16.58,18.38,10.61,48.19,10.61,66.57,0C293.9,357.93,298.48,352.35,298.3,346.77Z" style="fill:#263238"></path><path d="M218,352.19c-18.38-10.61-18.38-27.82,0-38.43s48.19-10.61,66.57,0,18.38,27.82,0,38.43S236.34,362.81,218,352.19Z" style="fill:#37474f"></path><path d="M283.7,331.83h0V257h0a30.72,30.72,0,1,0-61.43,0v75h0c0,4.52,3,9,9,12.46,12,6.85,31.49,6.82,43.44-.08,5.93-3.42,8.91-7.9,9-12.38h0Z" style="fill:#455a64"></path><path d="M264.07,299.21a9,9,0,0,1,4.11-7.08,2.83,2.83,0,0,1,3-.23h0L273,293l-.75,1.32c0,.05,0,.1,0,.15a9,9,0,0,1-4.1,7.07h0l-.85,1.5-2-1.21h0l-.07,0h0A2.89,2.89,0,0,1,264.07,299.21Z" style="fill:#407BFF"></path><path d="M264.07,299.21a9,9,0,0,1,4.11-7.08,2.83,2.83,0,0,1,3-.23h0L273,293l-.75,1.32c0,.05,0,.1,0,.15a9,9,0,0,1-4.1,7.07h0l-.85,1.5-2-1.21h0l-.07,0h0A2.89,2.89,0,0,1,264.07,299.21Z" style="opacity:0.30000000000000004"></path><path d="M274.29,295.66a9.06,9.06,0,0,1-4.1,7.08c-2.27,1.31-4.11.26-4.11-2.34a9,9,0,0,1,4.1-7.07C272.45,292,274.29,293.07,274.29,295.66Z" style="fill:#407BFF"></path><path d="M264.07,316.77a9,9,0,0,1,4.11-7.07,2.81,2.81,0,0,1,3-.24h0l1.86,1.11-.75,1.33c0,.05,0,.09,0,.14a9,9,0,0,1-4.1,7.08h0l-.85,1.5-2-1.2,0,0-.07,0h0A2.89,2.89,0,0,1,264.07,316.77Z" style="fill:#e0e0e0"></path><path d="M274.29,313.23a9,9,0,0,1-4.1,7.07c-2.27,1.31-4.11.26-4.11-2.33a9.06,9.06,0,0,1,4.1-7.08C272.45,309.58,274.29,310.63,274.29,313.23Z" style="fill:#f5f5f5"></path><path d="M348.08,84.54h0a8.14,8.14,0,0,0-1.81-1.41c-2.17-1.24-11.54-6.68-12.18-7-5.41-3.08-13,1.48-18.33,11.44L242.5,225c-9.4,17.63-10.13,40-1.59,48.64h0a12,12,0,0,0,2.46,1.95c2.14,1.26,11.37,6.57,12.26,7.09,8.62,5,21-3.66,28.5-20.7l64.28-146.57C353.61,103.5,353.47,90,348.08,84.54Z" style="fill:#407BFF"></path><path d="M348.08,84.54h0a8.14,8.14,0,0,0-1.81-1.41c-2.17-1.24-11.54-6.68-12.18-7-5.41-3.08-13,1.48-18.33,11.44L242.5,225c-9.4,17.63-10.13,40-1.59,48.64h0a12,12,0,0,0,2.46,1.95c2.14,1.26,11.37,6.57,12.26,7.09,8.62,5,21-3.66,28.5-20.7l64.28-146.57C353.61,103.5,353.47,90,348.08,84.54Z" style="fill:#fff;opacity:0.30000000000000004"></path><path d="M348.41,115.37,284.13,261.94c-8.25,18.81-22.5,27.4-31,18.71h0c-8.54-8.69-7.82-31,1.59-48.65L327.94,94.57c5.94-11.13,14.74-15.52,20.14-10h0C353.47,90,353.61,103.5,348.41,115.37Z" style="fill:#fff;opacity:0.30000000000000004"></path><path d="M264.49,268.42c2.17,1,5,.54,7.89-1.52,5.82-4.12,9.87-13.2,9-20.29-.42-3.54-2-5.91-4.15-6.88l-4.65-2c-2.18-1-5-.54-7.89,1.52-5.82,4.12-9.87,13.2-9,20.29.41,3.54,2,5.91,4.15,6.88Z" style="fill:#263238"></path><path d="M281.42,246.61c-.42-3.54-2-5.91-4.15-6.88s-5-.54-7.9,1.52c-5.82,4.12-9.86,13.2-9,20.29.41,3.54,2,5.91,4.14,6.88s5,.54,7.9-1.52C278.2,262.78,282.25,253.7,281.42,246.61Z" style="fill:#455a64"></path><path d="M336.53,112.54a4.42,4.42,0,0,0,4.34-.83,13.17,13.17,0,0,0,5-11.16c-.23-2-1.08-3.25-2.28-3.78L341,95.64c-1.19-.53-2.74-.3-4.34.84a13.18,13.18,0,0,0-5,11.15c.23,2,1.09,3.25,2.29,3.78C334.7,111.74,335.8,112.22,336.53,112.54Z" style="fill:#263238"></path><path d="M345.84,100.55c-.23-2-1.08-3.25-2.28-3.78s-2.74-.3-4.34.83a13.17,13.17,0,0,0-5,11.16c.23,1.94,1.08,3.25,2.28,3.78a4.42,4.42,0,0,0,4.34-.83A13.17,13.17,0,0,0,345.84,100.55Z" style="fill:#455a64"></path><path d="M193.17,88.93c3.91-2.94,7.68-3.57,10.6-2.23h0l17.85,10.38-.49,1.15a13.74,13.74,0,0,1,2.23,6.36c1.14,9.53-4.15,21.91-11.83,27.66a13.9,13.9,0,0,1-6.07,2.77L205,136.2l-17.8-10.36v0c-3-1.14-5.24-4.32-5.83-9.24C180.19,107.06,185.49,94.68,193.17,88.93Z" style="fill:#407BFF"></path><path d="M193.17,88.93c3.91-2.94,7.68-3.57,10.6-2.23h0l17.85,10.38-.49,1.15a13.74,13.74,0,0,1,2.23,6.36c1.14,9.53-4.15,21.91-11.83,27.66a13.9,13.9,0,0,1-6.07,2.77L205,136.2l-17.8-10.36v0c-3-1.14-5.24-4.32-5.83-9.24C180.19,107.06,185.49,94.68,193.17,88.93Z" style="opacity:0.15"></path><path d="M211.39,99.46c-7.68,5.76-13,18.14-11.83,27.66s8.29,12.58,16,6.83,13-18.13,11.84-27.66S219.07,93.71,211.39,99.46Z" style="fill:#407BFF"></path><path d="M206.8,121.68a6.75,6.75,0,0,0,.92,2.81c1.35,2.21,4,2.51,6.73.46a15.92,15.92,0,0,0,5.65-13.22c-.36-3-1.9-4.6-3.95-4.64a5.81,5.81,0,0,0-3.68,1.38A15.89,15.89,0,0,0,206.8,121.68Z" style="fill:#407BFF"></path><path d="M206.8,121.68a6.75,6.75,0,0,0,.92,2.81c1.35,2.21,4,2.51,6.73.46a15.92,15.92,0,0,0,5.65-13.22c-.36-3-1.9-4.6-3.95-4.64a5.81,5.81,0,0,0-3.68,1.38A15.89,15.89,0,0,0,206.8,121.68Z" style="opacity:0.30000000000000004"></path><path d="M206.8,121.68a6.75,6.75,0,0,0,.92,2.81,5.78,5.78,0,0,0,3.69-1.37,15.9,15.9,0,0,0,5.65-13.21,6.7,6.7,0,0,0-.91-2.82,5.81,5.81,0,0,0-3.68,1.38A15.89,15.89,0,0,0,206.8,121.68Z" style="fill:#263238"></path><path d="M149.53,124c-1.29.71-2.1,2.27-2.15,4.51a15.52,15.52,0,0,0,6.8,12.29c1.91,1.16,3.67,1.29,4.95.59l37.07-20.49c1.28-.71,2.1-2.27,2.14-4.5a15.53,15.53,0,0,0-6.79-12.29c-1.92-1.16-3.67-1.3-5-.59Z" style="fill:#263238"></path><path d="M154.18,140.75c1.91,1.16,3.67,1.29,4.95.58s2.1-2.26,2.14-4.5a15.48,15.48,0,0,0-6.79-12.29c-1.92-1.16-3.67-1.3-4.95-.59s-2.1,2.27-2.15,4.51A15.52,15.52,0,0,0,154.18,140.75Z" style="fill:#455a64"></path><g id="freepik--Hand--inject-82"><path d="M174.93,104.83c-3.26-1.81-6.26-2.29-8.68-1.62a54.48,54.48,0,0,1-10.32,1.7c-4.63.3-8.75,0-13.4.19a51.21,51.21,0,0,0-9.16,1.32c-2.73.65-4.72,4-6.23,6.16-1.23,1.76-3.19,6.21-2.7,7.27s4.94,1.79,2.78,3.64-9.82,4.42-14.4,7.57,5.54,24.83,13.5,35.32c5.5,7.26,7.81,11,20.09,5.7,7.41-3.22,14.28-6.14,20.77-11,5.88-4.37,13.94-15.68,19.74-22,2.1-1.77,3.33-4.85,3.25-9C190,120.74,183.18,109.4,174.93,104.83Z" style="fill:#455a64"></path><path d="M111.63,109c-3.93-.68-9.15,3.21-13.93,2.93-3.84-.23-4.15,4.25,1.1,6.15,3.43,1.25,11.49,1,11.24-.65C109.59,114.65,110.46,112.16,111.63,109Zm3.52-.88c-2,.46-4.75,7.9-3.47,9.56s7.89,2.68,11.09,1.27c1.06-7.06,6.91-12.28,6.91-12.28C125.45,105.85,117.11,107.7,115.15,108.15Z" style="fill:#407BFF"></path><g style="opacity:0.2"><path d="M109.93,115.44a79.83,79.83,0,0,1-8.61-.2,10.27,10.27,0,0,1-4-.91,4.46,4.46,0,0,1-1.82-1.73c-1.4,1.27-.57,4.1,3.33,5.51,3.43,1.25,11.49,1,11.24-.65A9.9,9.9,0,0,1,109.93,115.44Z" style="fill:#263238"></path><path d="M123.61,115.75l0,0c-2.18-1.27-4.89-.93-7.4-.67-1.57.17-3.15.27-4.73.34a3.41,3.41,0,0,0,.24,2.33c1.29,1.66,7.89,2.68,11.09,1.27A16.82,16.82,0,0,1,123.61,115.75Z" style="fill:#263238"></path></g><path d="M133.43,137.72c13.72,7.46,30.13,1.9,30.13,1.9a23,23,0,0,1-16.41,5.56C136.74,144.75,133.43,137.72,133.43,137.72Z" style="fill:#37474f"></path><path d="M110.23,140.39c.9,3.88,2,7.16-2.87,7.81s-11.55,1.66-14.3,3-6,1.49-6.62-2.43-.87-5.95,3.24-7.09,11.16-3.55,13.84-5S109,135.14,110.23,140.39Z" style="fill:#407BFF"></path><path d="M107.36,148.2c4.83-.65,3.77-3.93,2.87-7.81,0-.22-.1-.42-.16-.62a4.81,4.81,0,0,1-.18.65,6.61,6.61,0,0,1-2.69,3.38c-2.58,1.58-5.91,1.25-8.75,2.3-1.86.68-3.46,1.93-5.3,2.66a10.25,10.25,0,0,1-6.65.28h0c.72,3.69,3.88,3.56,6.57,2.21S102.52,148.85,107.36,148.2Z" style="fill:#263238;opacity:0.2"></path><path d="M85.16,149.37c-1.41-2.56-1.93-4.51-4.92-2.47s-6.17,3.9-9.63,6.21-3.59,4.42-2.75,5.95,3,1.87,6.61.59,7.26-3.53,9.88-4.6S87,152.69,85.16,149.37Z" style="fill:#407BFF"></path><g style="opacity:0.2"><path d="M85.16,149.37c-.08-.13-.15-.26-.22-.4a.67.67,0,0,0-.41.49,1.89,1.89,0,0,0,.1.74,2.26,2.26,0,0,1-.78,2A6.68,6.68,0,0,1,82,153.3l-9.06,4.11a8.84,8.84,0,0,1-3.59,1,3.58,3.58,0,0,1-1.84-.5,3.34,3.34,0,0,0,.39,1.11c.84,1.52,3,1.87,6.61.59s7.26-3.53,9.88-4.6S87,152.69,85.16,149.37Z" style="fill:#263238"></path></g><path d="M88.74,148.15c.52,1.58.92,2.65.38,3s-4.45,1.44-5.31-1.33,2.44-4.4,3.24-4.4S88.34,146.93,88.74,148.15Z" style="fill:#e0e0e0"></path><path d="M121,163.58c1.94,3.48,3.87,6.34-.55,8.37s-10.06,4.63-12.74,6.12c-3.42,1.9-6.21,2.86-7.91-.74s-1.61-4.2,2-6.5,9.64-6.66,11.79-8.82S118.33,158.88,121,163.58Z" style="fill:#407BFF"></path><path d="M98.06,177.75c-1.86-2.25-2.73-4.09-5.27-1.5s-4.27,4-7.22,6.94-2.68,5.05-1.57,6.4,3.25,1.28,6.56-.67,5.41-3.86,7.77-5.4S100.47,180.68,98.06,177.75Z" style="fill:#407BFF"></path><path d="M95.69,181.56c-1.46,1.16-3.2,2-4.57,3.26-1,.91-1.73,2-2.68,3a4.11,4.11,0,0,1-4.79,1.29,3.54,3.54,0,0,0,.35.51c1.11,1.34,3.25,1.28,6.56-.67s5.41-3.86,7.77-5.4,2.14-2.81-.21-5.69A6.26,6.26,0,0,1,95.69,181.56Zm25.26-18c-.09-.16-.18-.3-.27-.45a5.74,5.74,0,0,1,.12,2.54,6,6,0,0,1-3.06,3.7,42.74,42.74,0,0,1-4.56,1.94,20.05,20.05,0,0,0-4.79,2.91,22.49,22.49,0,0,1-3.4,2.62,7.27,7.27,0,0,1-5.18.6c1.7,3.46,4.47,2.51,7.85.63,2.68-1.49,8.31-4.09,12.74-6.12S122.89,167.06,121,163.58Z" style="fill:#263238;opacity:0.2"></path><path d="M101.15,176.36c.74,1.49,1.29,2.49.82,2.94s-4.17,2.1-5.43-.51,1.75-4.74,2.54-4.86S100.57,175.22,101.15,176.36Z" style="fill:#e0e0e0"></path><path d="M128.53,174.24c2.31,3,2.78,5-.06,6.63-5.14,2.87-7.26,4.46-9.89,5.81-4.53,2.33-5.43,2.23-7.25-1.14s-1.14-4.13,2.26-6.69c2.78-2.1,5.78-4.24,8.82-6.31C124.82,170.9,126.57,171.64,128.53,174.24Z" style="fill:#407BFF"></path><path d="M109.85,186.84c-1.9-2.07-2.3-3.2-5.12-1.15a21.26,21.26,0,0,0-4.18,3.7c-2.53,3.1-2.28,5-1.15,6.26s3.19,1,6.25-1,2-1.35,4.15-3S112.32,189.53,109.85,186.84Z" style="fill:#407BFF"></path><path d="M108.87,189.25a14.27,14.27,0,0,1-2.27,1.48,18.83,18.83,0,0,0-3.46,2.7A9.7,9.7,0,0,1,101,195.3a2.92,2.92,0,0,1-1.56.33v0c1.14,1.23,3.19,1,6.25-1s2-1.35,4.15-3,2.49-2.09.26-4.57A3.34,3.34,0,0,1,108.87,189.25Zm19.66-15a11.8,11.8,0,0,0-1-1.2,3.87,3.87,0,0,1-.58,3.17c-1,1.35-2.72,1.89-4.11,2.82-2.47,1.67-3.89,4.63-6.49,6.09a7,7,0,0,1-4.71.78h-.09c1.7,3,2.7,3,7.06.79,2.63-1.35,4.75-2.94,9.89-5.81C131.31,179.29,130.84,177.29,128.53,174.24Z" style="fill:#263238;opacity:0.2"></path><path d="M112.46,184.77c.85,1.35,1.47,2.26,1.06,2.73s-3.81,2.39-5.26,0,1.24-4.69,2-4.88S111.8,183.72,112.46,184.77Z" style="fill:#e0e0e0"></path><path d="M114.64,151.92c1.65,3.63,3.35,6.63-1.24,8.27s-14.48,5.58-16.88,7.5-5.54,2.72-7-1-2-5.67,1.74-7.65,13.72-7.35,16-9.31S112.4,147,114.64,151.92Z" style="fill:#407BFF"></path><path d="M88.51,166.34c-1.73-2.35-2.49-4.22-5.21-1.82s-5.66,4.62-8.81,7.34-3,4.82-2,6.22,3.2,1.48,6.66-.25,6.79-4.4,9.26-5.78S90.76,169.39,88.51,166.34Z" style="fill:#407BFF"></path><path d="M87.76,168.51A12,12,0,0,1,85,170.24a25.58,25.58,0,0,0-4.44,3,29.79,29.79,0,0,1-4,3.25,6,6,0,0,1-4.43.81,3.81,3.81,0,0,0,.44.79c1,1.4,3.2,1.48,6.66-.25s6.79-4.4,9.26-5.78,2.34-2.55.36-5.33A3.63,3.63,0,0,1,87.76,168.51Zm27-16.31a4,4,0,0,1-.16,2.16,4.37,4.37,0,0,1-1.17,1.56c-3.4,3.08-8.5,3.26-12.55,5.42-2,1.06-3.69,2.59-5.68,3.64a7.44,7.44,0,0,1-6,.76c.11.3.23.61.35.95,1.41,3.72,4.55,2.93,7,1s12.3-5.85,16.88-7.5S116.38,155.7,114.77,152.2Z" style="fill:#263238;opacity:0.2"></path><path d="M91.79,165c.69,1.51,1.2,2.53.72,3s-4.25,2-5.41-.7,1.92-4.68,2.71-4.77S91.26,163.79,91.79,165Z" style="fill:#e0e0e0"></path></g></g></g><g id="freepik--speech-bubble--inject-82"><g id="freepik--speech-bubble--inject-82"><g id="freepik--speech-bubble--inject-82"><path d="M77.31,98.78l-15.45,8.94L68,121.52a1.3,1.3,0,0,0,.59.65l7.88,4.54a1.43,1.43,0,0,0,2.08-.83l6.66-22.56Z" style="fill:#407BFF"></path><path d="M91.23,36.37,43.38,64a2.78,2.78,0,0,0-1.26,2.18l.05,52a2.78,2.78,0,0,0,1.26,2.17l7.09,4a2.8,2.8,0,0,0,2.52,0l47.85-27.62a2.8,2.8,0,0,0,1.26-2.18l-.05-52a2.78,2.78,0,0,0-1.26-2.17l-7.09-4A2.8,2.8,0,0,0,91.23,36.37Z" style="fill:#407BFF"></path><path d="M102.08,42.29c-.09-.63-.61-.86-1.24-.5L53,69.41a2.69,2.69,0,0,0-.89.94l-9.59-5.47a2.45,2.45,0,0,1,.86-.89L91.23,36.36a2.83,2.83,0,0,1,2.52,0l7.09,4A2.75,2.75,0,0,1,102.08,42.29Z" style="opacity:0.15"></path><path d="M75.9,126.06l-5.3-11.9L53,124.31c-.69.4-1.25.08-1.25-.72l0-52A2.77,2.77,0,0,1,53,69.41l47.84-27.62c.7-.4,1.26-.07,1.26.73l.05,52a2.8,2.8,0,0,1-1.26,2.18l-16.54,9.54-5.8,19.65A1.41,1.41,0,0,1,75.9,126.06Z" style="fill:#407BFF"></path><path d="M75.9,126.06l-5.3-11.9L53,124.31c-.69.4-1.25.08-1.25-.72l0-52A2.77,2.77,0,0,1,53,69.41l47.84-27.62c.7-.4,1.26-.07,1.26.73l.05,52a2.8,2.8,0,0,1-1.26,2.18l-16.54,9.54-5.8,19.65A1.41,1.41,0,0,1,75.9,126.06Z" style="fill:#fff;opacity:0.35000000000000003"></path></g><path id="freepik--Check--inject-82" d="M89.52,59.08A3.56,3.56,0,0,0,84.86,61l-13.44,32-3.2-3.11a3.55,3.55,0,0,0-4.95,5.1l6.94,6.74a3.5,3.5,0,0,0,2.47,1,3.42,3.42,0,0,0,.71-.07A3.56,3.56,0,0,0,76,100.5L91.41,63.73A3.55,3.55,0,0,0,89.52,59.08Z" style="fill:#fafafa"></path></g></g></svg>