<svg width="26" height="26" viewBox="0 0 26 26" fill="none" xmlns="http://www.w3.org/2000/svg">
<path fill-rule="evenodd" clip-rule="evenodd" d="M7.31258 9.75C7.95904 9.75 8.57903 9.49319 9.03615 9.03607C9.49327 8.57896 9.75008 7.95897 9.75008 7.3125C9.75008 6.66604 9.49327 6.04605 9.03615 5.58893C8.57903 5.13181 7.95904 4.875 7.31258 4.875C6.66611 4.875 6.04613 5.13181 5.58901 5.58893C5.13189 6.04605 4.87508 6.66604 4.87508 7.3125C4.87508 7.95897 5.13189 8.57896 5.58901 9.03607C6.04613 9.49319 6.66611 9.75 7.31258 9.75ZM2.43758 7.3125C2.43731 8.1722 2.66439 9.01668 3.09579 9.7603C3.52719 10.5039 4.14757 11.1202 4.894 11.5468C5.64044 11.9733 6.48639 12.1948 7.34607 12.1889C8.20574 12.183 9.04857 11.9499 9.78908 11.5131L11.276 13L9.78908 14.4869C8.76699 13.8841 7.56013 13.6747 6.39474 13.8981C5.22935 14.1215 4.18544 14.7623 3.45872 15.7003C2.732 16.6384 2.37236 17.8093 2.44722 18.9935C2.52208 20.1777 3.0263 21.294 3.86536 22.1331C4.70442 22.9722 5.82071 23.4764 7.00495 23.5512C8.1892 23.6261 9.36009 23.2665 10.2981 22.5397C11.2362 21.813 11.8769 20.7691 12.1003 19.6037C12.3237 18.4383 12.1144 17.2315 11.5116 16.2094L13.1983 14.5275L22.1375 19.7421C22.2757 19.8228 22.4286 19.8754 22.5872 19.897C22.7458 19.9186 22.9071 19.9088 23.0619 19.8681C23.2168 19.8273 23.362 19.7565 23.4895 19.6596C23.6169 19.5627 23.724 19.4417 23.8047 19.3034C23.8854 19.1651 23.938 19.0123 23.9596 18.8537C23.9812 18.695 23.9714 18.5337 23.9306 18.3789C23.8899 18.2241 23.819 18.0788 23.7222 17.9513C23.6253 17.8239 23.5042 17.7168 23.366 17.6361L15.4181 13L23.3643 8.3655C23.5026 8.28484 23.6236 8.17773 23.7205 8.05028C23.8174 7.92284 23.8883 7.77756 23.929 7.62274C23.9697 7.46793 23.9796 7.3066 23.958 7.14797C23.9364 6.98935 23.8837 6.83653 23.8031 6.69825C23.7224 6.55997 23.6153 6.43893 23.4879 6.34204C23.3604 6.24516 23.2151 6.17432 23.0603 6.13358C22.9055 6.09284 22.7442 6.08299 22.5856 6.10459C22.4269 6.1262 22.2741 6.17884 22.1358 6.2595L13.1983 11.4741L11.5132 9.789C11.8935 9.14324 12.1198 8.41848 12.1746 7.67104C12.2293 6.92361 12.1109 6.17362 11.8287 5.47934C11.5465 4.78507 11.1081 4.16521 10.5474 3.66792C9.9867 3.17063 9.31892 2.8093 8.59592 2.61201C7.87291 2.41473 7.11416 2.38679 6.3786 2.53037C5.64305 2.67395 4.9505 2.98518 4.35477 3.43989C3.75903 3.8946 3.27616 4.48053 2.94365 5.15217C2.61115 5.82381 2.43797 6.56306 2.43758 7.3125ZM7.31258 16.25C7.95904 16.25 8.57903 16.5068 9.03615 16.9639C9.49327 17.421 9.75008 18.041 9.75008 18.6875C9.75008 19.334 9.49327 19.954 9.03615 20.4111C8.57903 20.8682 7.95904 21.125 7.31258 21.125C6.66611 21.125 6.04613 20.8682 5.58901 20.4111C5.13189 19.954 4.87508 19.334 4.87508 18.6875C4.87508 18.041 5.13189 17.421 5.58901 16.9639C6.04613 16.5068 6.66611 16.25 7.31258 16.25Z" fill="#4200FF"/>
</svg>
