<svg width="22" height="22" viewBox="0 0 22 22" fill="none" xmlns="http://www.w3.org/2000/svg">
<path fill-rule="evenodd" clip-rule="evenodd" d="M5.31258 7.74988C5.95904 7.74988 6.57903 7.49307 7.03615 7.03595C7.49327 6.57883 7.75008 5.95884 7.75008 5.31238C7.75008 4.66591 7.49327 4.04593 7.03615 3.58881C6.57903 3.13169 5.95904 2.87488 5.31258 2.87488C4.66611 2.87488 4.04613 3.13169 3.58901 3.58881C3.13189 4.04593 2.87508 4.66591 2.87508 5.31238C2.87508 5.95884 3.13189 6.57883 3.58901 7.03595C4.04613 7.49307 4.66611 7.74988 5.31258 7.74988ZM0.437579 5.31238C0.437312 6.17208 0.664393 7.01656 1.09579 7.76018C1.52719 8.5038 2.14757 9.12012 2.894 9.54663C3.64044 9.97314 4.48639 10.1947 5.34607 10.1888C6.20574 10.1829 7.04857 9.94973 7.78908 9.513L9.27595 10.9999L7.78908 12.4868C6.76699 11.8839 5.56013 11.6746 4.39474 11.898C3.22935 12.1214 2.18544 12.7622 1.45872 13.7002C0.731997 14.6382 0.372356 15.8091 0.447217 16.9934C0.522078 18.1776 1.0263 19.2939 1.86536 20.133C2.70442 20.972 3.82071 21.4763 5.00495 21.5511C6.1892 21.626 7.36009 21.2663 8.29813 20.5396C9.23617 19.8129 9.87695 18.769 10.1003 17.6036C10.3237 16.4382 10.1144 15.2313 9.51158 14.2093L11.1983 12.5274L20.1375 17.742C20.2757 17.8227 20.4286 17.8753 20.5872 17.8969C20.7458 17.9185 20.9071 17.9087 21.0619 17.8679C21.2168 17.8272 21.362 17.7564 21.4895 17.6595C21.6169 17.5626 21.724 17.4415 21.8047 17.3033C21.8854 17.165 21.938 17.0122 21.9596 16.8535C21.9812 16.6949 21.9714 16.5336 21.9306 16.3788C21.8899 16.2239 21.819 16.0787 21.7222 15.9512C21.6253 15.8238 21.5042 15.7167 21.366 15.636L13.4181 10.9999L21.3643 6.36538C21.5026 6.28471 21.6237 6.1776 21.7205 6.05016C21.8174 5.92272 21.8883 5.77744 21.929 5.62262C21.9697 5.4678 21.9796 5.30648 21.958 5.14785C21.9364 4.98923 21.8837 4.83641 21.8031 4.69813C21.7224 4.55985 21.6153 4.43881 21.4879 4.34192C21.3604 4.24503 21.2151 4.1742 21.0603 4.13346C20.9055 4.09271 20.7442 4.08286 20.5856 4.10447C20.4269 4.12608 20.2741 4.17871 20.1358 4.25938L11.1983 9.474L9.5132 7.78888C9.89352 7.14311 10.1198 6.41836 10.1746 5.67092C10.2293 4.92348 10.1109 4.17349 9.82874 3.47922C9.54654 2.78495 9.10806 2.16508 8.54738 1.6678C7.9867 1.17051 7.31892 0.809181 6.59592 0.611893C5.87291 0.414604 5.11416 0.386665 4.3786 0.530246C3.64305 0.673826 2.9505 0.985061 2.35477 1.43977C1.75903 1.89447 1.27616 2.48041 0.943652 3.15205C0.611149 3.82369 0.437973 4.56294 0.437579 5.31238ZM5.31258 14.2499C5.95904 14.2499 6.57903 14.5067 7.03615 14.9638C7.49327 15.4209 7.75008 16.0409 7.75008 16.6874C7.75008 17.3338 7.49327 17.9538 7.03615 18.411C6.57903 18.8681 5.95904 19.1249 5.31258 19.1249C4.66611 19.1249 4.04613 18.8681 3.58901 18.411C3.13189 17.9538 2.87508 17.3338 2.87508 16.6874C2.87508 16.0409 3.13189 15.4209 3.58901 14.9638C4.04613 14.5067 4.66611 14.2499 5.31258 14.2499Z" fill="white"/>
</svg>
