<svg width="28" height="22" viewBox="0 0 28 22" fill="none" xmlns="http://www.w3.org/2000/svg">
<path d="M7.09375 2.5C7.09375 2.07731 7.26166 1.67193 7.56055 1.37305C7.85944 1.07416 8.26481 0.90625 8.6875 0.90625H25.6875C26.1102 0.90625 26.5156 1.07416 26.8145 1.37305C27.1133 1.67193 27.2812 2.07731 27.2812 2.5C27.2812 2.92269 27.1133 3.32807 26.8145 3.62695C26.5156 3.92584 26.1102 4.09375 25.6875 4.09375H8.6875C8.26481 4.09375 7.85944 3.92584 7.56055 3.62695C7.26166 3.32807 7.09375 2.92269 7.09375 2.5ZM25.6875 9.40625H8.6875C8.26481 9.40625 7.85944 9.57416 7.56055 9.87305C7.26166 10.1719 7.09375 10.5773 7.09375 11C7.09375 11.4227 7.26166 11.8281 7.56055 12.127C7.85944 12.4258 8.26481 12.5938 8.6875 12.5938H25.6875C26.1102 12.5938 26.5156 12.4258 26.8145 12.127C27.1133 11.8281 27.2812 11.4227 27.2812 11C27.2812 10.5773 27.1133 10.1719 26.8145 9.87305C26.5156 9.57416 26.1102 9.40625 25.6875 9.40625ZM25.6875 17.9062H8.6875C8.26481 17.9062 7.85944 18.0742 7.56055 18.373C7.26166 18.6719 7.09375 19.0773 7.09375 19.5C7.09375 19.9227 7.26166 20.3281 7.56055 20.627C7.85944 20.9258 8.26481 21.0938 8.6875 21.0938H25.6875C26.1102 21.0938 26.5156 20.9258 26.8145 20.627C27.1133 20.3281 27.2812 19.9227 27.2812 19.5C27.2812 19.0773 27.1133 18.6719 26.8145 18.373C26.5156 18.0742 26.1102 17.9062 25.6875 17.9062ZM2.84375 8.875C2.42347 8.875 2.01262 8.99963 1.66316 9.23313C1.31371 9.46663 1.04134 9.79851 0.880507 10.1868C0.719671 10.5751 0.677589 11.0024 0.759582 11.4146C0.841576 11.8268 1.04396 12.2054 1.34115 12.5026C1.63834 12.7998 2.01697 13.0022 2.42918 13.0842C2.84139 13.1662 3.26866 13.1241 3.65695 12.9632C4.04525 12.8024 4.37713 12.53 4.61062 12.1806C4.84412 11.8311 4.96875 11.4203 4.96875 11C4.96875 10.4364 4.74487 9.89591 4.34635 9.4974C3.94784 9.09888 3.40734 8.875 2.84375 8.875ZM2.84375 0.375C2.42347 0.375 2.01262 0.499629 1.66316 0.733127C1.31371 0.966625 1.04134 1.2985 0.880507 1.6868C0.719671 2.07509 0.677589 2.50236 0.759582 2.91457C0.841576 3.32678 1.04396 3.70541 1.34115 4.0026C1.63834 4.29979 2.01697 4.50218 2.42918 4.58417C2.84139 4.66616 3.26866 4.62408 3.65695 4.46324C4.04525 4.30241 4.37713 4.03004 4.61062 3.68059C4.84412 3.33113 4.96875 2.92029 4.96875 2.5C4.96875 1.93641 4.74487 1.39591 4.34635 0.997398C3.94784 0.598883 3.40734 0.375 2.84375 0.375ZM2.84375 17.375C2.42347 17.375 2.01262 17.4996 1.66316 17.7331C1.31371 17.9666 1.04134 18.2985 0.880507 18.6868C0.719671 19.0751 0.677589 19.5024 0.759582 19.9146C0.841576 20.3268 1.04396 20.7054 1.34115 21.0026C1.63834 21.2998 2.01697 21.5022 2.42918 21.5842C2.84139 21.6662 3.26866 21.6241 3.65695 21.4632C4.04525 21.3024 4.37713 21.03 4.61062 20.6806C4.84412 20.3311 4.96875 19.9203 4.96875 19.5C4.96875 18.9364 4.74487 18.3959 4.34635 17.9974C3.94784 17.5989 3.40734 17.375 2.84375 17.375Z" fill="#1615F1"/>
</svg>
